<svg id="Layer_2" data-name="Layer 2" xmlns="http://www.w3.org/2000/svg" viewBox="0 0 414.05 134.05"><defs><style>.cls-1{fill:#002e6d;}.cls-2{fill:#1d1d1b;}</style></defs><title>companies-house-logo</title><rect class="cls-1" width="4.16" height="124.14"/><path class="cls-2" d="M49.76,99.55c-1-5-5-7.53-9.89-7.53-8.42,0-12,6.93-12,14.31,0,8.07,3.56,14.8,12,14.8,6.19,0,9.76-4.36,10.2-10.2h4.7c-.89,8.81-6.38,14.16-15.29,14.16-11,0-16.34-8.12-16.34-18.42S29,88.06,39.91,88.06c7.38,0,13.47,4,14.56,11.49Z"/><path class="cls-2" d="M69.92,98.06c8.11,0,12.42,5.89,12.42,13.42S78,124.84,69.92,124.84,57.49,119,57.49,111.48,61.8,98.06,69.92,98.06Zm0,23.07c4.4,0,8-3.47,8-9.65s-3.57-9.71-8-9.71-8,3.47-8,9.71S65.51,121.13,69.92,121.13Z"/><path class="cls-2" d="M86.13,98.66h4v3.76h.1a9.43,9.43,0,0,1,8.26-4.36c3.12,0,6,1.24,7,4.36a9.45,9.45,0,0,1,8-4.36c5.1,0,8.51,2.13,8.51,7.43v18.76h-4.2V107.47c0-3.17-.84-5.7-5-5.7s-6.69,2.58-6.69,6.54v15.94H102V107.47c0-3.32-1-5.7-4.8-5.7a6.92,6.92,0,0,0-6.84,6.54v15.94h-4.2Z"/><path class="cls-2" d="M127.24,98.66h4.2v3.46h.1c1.39-2.82,4.66-4.06,8.17-4.06,7.87,0,11.78,6.24,11.78,13.46s-3.86,13.32-11.68,13.32c-2.62,0-6.39-1-8.27-4h-.1v13.22h-4.2Zm11.88,3.11c-5.65,0-7.83,4.85-7.83,9.66,0,5,2.28,9.7,8.07,9.7s7.68-4.9,7.68-9.9C147,106.43,144.56,101.77,139.12,101.77Z"/><path class="cls-2" d="M177.85,124.15a5.72,5.72,0,0,1-3,.69c-2.18,0-3.56-1.19-3.56-4a11.38,11.38,0,0,1-9,4c-4.66,0-8.47-2.08-8.47-7.18,0-5.79,4.31-7,8.66-7.87,4.66-.89,8.62-.59,8.62-3.76,0-3.66-3-4.26-5.69-4.26-3.57,0-6.19,1.09-6.39,4.85h-4.21c.25-6.33,5.15-8.56,10.84-8.56,4.61,0,9.61,1,9.61,7v13.17c0,2,0,2.87,1.33,2.87a3.6,3.6,0,0,0,1.29-.25ZM171,111c-1.64,1.19-4.8,1.24-7.62,1.73s-5.15,1.49-5.15,4.61c0,2.77,2.37,3.76,4.95,3.76,5.54,0,7.82-3.47,7.82-5.79Z"/><path class="cls-2" d="M180.77,98.66h4v4h.1a8.91,8.91,0,0,1,8.31-4.65c6.74,0,8.82,3.86,8.82,9.36v16.83h-4.21V106.92a4.82,4.82,0,0,0-5.2-5.15c-5.1,0-7.57,3.42-7.57,8v14.46h-4.21Z"/><path class="cls-2" d="M211.36,94.05h-4.21V88.9h4.21Zm-4.21,4.61h4.21v25.59h-4.21Z"/><path class="cls-2" d="M238.46,116.13c-1.14,5.64-5.2,8.71-10.94,8.71-8.17,0-12-5.64-12.27-13.46,0-7.68,5-13.32,12-13.32,9.06,0,11.83,8.47,11.59,14.65H219.7c-.15,4.46,2.38,8.42,8,8.42,3.46,0,5.89-1.69,6.63-5ZM234.4,109a7.37,7.37,0,0,0-7.37-7.23c-4.41,0-7,3.32-7.33,7.23Z"/><path class="cls-2" d="M245,116.18c.15,3.76,3.42,4.95,6.89,4.95,2.62,0,6.18-.6,6.18-3.81s-4.16-3.82-8.36-4.75-8.37-2.33-8.37-7.23c0-5.15,5.1-7.28,9.55-7.28,5.65,0,10.15,1.78,10.5,8h-4.21c-.3-3.27-3.17-4.31-5.94-4.31-2.52,0-5.44.7-5.44,3.27,0,3,4.45,3.52,8.36,4.46,4.21.94,8.37,2.32,8.37,7.27,0,6.09-5.7,8.07-10.89,8.07-5.74,0-10.6-2.33-10.84-8.66Z"/><path class="cls-2" d="M280.63,88.9h4.71v15.2H304V88.9h4.7v35.35H304V108.06H285.34v16.19h-4.71Z"/><path class="cls-2" d="M325.56,98.06c8.11,0,12.42,5.89,12.42,13.42s-4.31,13.36-12.42,13.36-12.43-5.89-12.43-13.36S317.44,98.06,325.56,98.06Zm0,23.07c4.4,0,8-3.47,8-9.65s-3.56-9.71-8-9.71-8,3.47-8,9.71S321.15,121.13,325.56,121.13Z"/><path class="cls-2" d="M362.87,124.25h-4v-4.06h-.1a8.9,8.9,0,0,1-8.32,4.65c-6.73,0-8.81-3.86-8.81-9.35V98.66h4.21V116a4.82,4.82,0,0,0,5.2,5.15c5.1,0,7.57-3.42,7.57-8V98.66h4.21Z"/><path class="cls-2" d="M370.74,116.18c.15,3.76,3.42,4.95,6.88,4.95,2.63,0,6.19-.6,6.19-3.81s-4.16-3.82-8.36-4.75-8.37-2.33-8.37-7.23c0-5.15,5.1-7.28,9.55-7.28,5.65,0,10.15,1.78,10.5,8h-4.21c-.3-3.27-3.17-4.31-5.94-4.31-2.52,0-5.44.7-5.44,3.27,0,3,4.45,3.52,8.36,4.46,4.21.94,8.37,2.32,8.37,7.27,0,6.09-5.7,8.07-10.89,8.07-5.75,0-10.6-2.33-10.84-8.66Z"/><path class="cls-2" d="M413.64,116.13c-1.14,5.64-5.2,8.71-10.94,8.71-8.17,0-12-5.64-12.28-13.46,0-7.68,5.05-13.32,12-13.32,9.06,0,11.83,8.47,11.59,14.65H394.88c-.15,4.46,2.38,8.42,8,8.42,3.46,0,5.89-1.69,6.63-5ZM409.58,109a7.37,7.37,0,0,0-7.37-7.23c-4.41,0-7,3.32-7.33,7.23Z"/><path class="cls-2" d="M58,12.54c-.41.77-.76,1.22-.7,1.82s.68,1,1,1.62c.27-.7.72-1.23.67-1.77s-.81-1.27-.94-1.67"/><path class="cls-2" d="M68.37,12.54c.4.77.75,1.22.7,1.82s-.68,1-1,1.62c-.27-.7-.72-1.23-.67-1.77s.81-1.27,1-1.67"/><path class="cls-2" d="M52,12.09a.7.7,0,1,0-.7-.7.7.7,0,0,0,.7.7"/><path class="cls-2" d="M52.5,13.09a.71.71,0,1,0-.71.7.7.7,0,0,0,.71-.7"/><path class="cls-2" d="M52.84,14.79a.7.7,0,1,0-.7.7.7.7,0,0,0,.7-.7"/><path class="cls-2" d="M55.91,8.75a.7.7,0,1,0-.7-.7.7.7,0,0,0,.7.7"/><path class="cls-2" d="M54.16,9.29a.71.71,0,1,0-.7-.7.7.7,0,0,0,.7.7"/><path class="cls-2" d="M52.79,10.49a.7.7,0,1,0,0-1.4.7.7,0,0,0,0,1.4"/><path class="cls-2" d="M57.73,8.92a.7.7,0,1,0-.7-.7.7.7,0,0,0,.7.7"/><path class="cls-2" d="M59.47,9.42a.7.7,0,1,0-.7-.7.7.7,0,0,0,.7.7"/><path class="cls-2" d="M61.11,10.19a.7.7,0,0,0,.7-.7.7.7,0,1,0-1.4,0,.7.7,0,0,0,.7.7"/><path class="cls-2" d="M73.61,11.39a.7.7,0,1,0,.7-.7.7.7,0,0,0-.7.7"/><path class="cls-2" d="M74.55,12.39a.7.7,0,1,0,.7.7.7.7,0,0,0-.7-.7"/><path class="cls-2" d="M74.2,14.09a.7.7,0,1,0,.71.7.7.7,0,0,0-.71-.7"/><path class="cls-2" d="M70.43,8.75a.7.7,0,1,0-.7-.7.7.7,0,0,0,.7.7"/><path class="cls-2" d="M72.18,9.29a.71.71,0,1,0-.7-.7.71.71,0,0,0,.7.7"/><path class="cls-2" d="M73.55,10.49a.7.7,0,1,0,0-1.4.7.7,0,0,0,0,1.4"/><path class="cls-2" d="M68.6,8.92a.7.7,0,1,0-.7-.7.7.7,0,0,0,.7.7"/><path class="cls-2" d="M66.87,9.42a.7.7,0,1,0-.7-.7.7.7,0,0,0,.7.7"/><path class="cls-2" d="M64.53,9.49a.7.7,0,1,0,.7-.71.7.7,0,0,0-.7.71"/><path class="cls-2" d="M62,13.28h.79v-3A2.7,2.7,0,0,1,62,10Z"/><path class="cls-2" d="M64.37,10a2.7,2.7,0,0,1-.79.25v3h.79Z"/><path class="cls-2" d="M62.72,6.72V4.94A2.2,2.2,0,0,0,61,6.72Z"/><path class="cls-2" d="M63.63,6.72h1.71a2.21,2.21,0,0,0-1.71-1.78Z"/><path class="cls-2" d="M61,7.58a2.2,2.2,0,0,0,4.3,0Z"/><path class="cls-2" d="M64.38,4.66a2.44,2.44,0,0,1-1-1.55,2.82,2.82,0,0,1,1.59,1V1.71a2.82,2.82,0,0,1-1.59,1A3.5,3.5,0,0,1,64.34,1H62a3.5,3.5,0,0,1,.92,1.73,2.82,2.82,0,0,1-1.59-1V4.12a2.82,2.82,0,0,1,1.59-1,2.4,2.4,0,0,1-1,1.55Z"/><path class="cls-2" d="M64.44,55a.87.87,0,1,1,.86-.87.86.86,0,0,1-.86.87m-4.13-1.28a.95.95,0,1,1,.94-.94.95.95,0,0,1-.94.94m-1.43-4.2-.23-.17a.84.84,0,0,0-1.18,0,4.27,4.27,0,0,0-.5.54l-.24.27.16.13c.45.36.52.76.39,1a.37.37,0,0,1-.24.18,1.19,1.19,0,0,1-.86-.22l-.17-.1-.11.17a.83.83,0,0,1-.08.12l-.12.19a1.74,1.74,0,0,0-.28.8.47.47,0,0,0,0,.17.8.8,0,0,0,.44.46l.11.06c.2.13.49.3.7.42a1.2,1.2,0,0,1-1.2,0,1.81,1.81,0,0,1-1-1.32,3.71,3.71,0,0,1,.66-1.87l.07-.1-.07-.11a4.19,4.19,0,0,1-.3-.6c.22,0,.45.07.67.12l.12,0,.08-.08a3.48,3.48,0,0,1,2.05-1.23,1.49,1.49,0,0,1,1.09.54,1.71,1.71,0,0,1,.4.85c-.12-.09-.26-.19-.39-.3M67,52.8a44.79,44.79,0,0,1-7.29-2.61v0a1.92,1.92,0,0,0-.5-1.49A1.86,1.86,0,0,0,57.78,48a2,2,0,0,0-.67.13,12.44,12.44,0,0,1-1-1,12,12,0,0,1-2.16-3.76,12.75,12.75,0,0,1-.64-2.5A2.28,2.28,0,0,1,51,42.5c0-.15,0-.51-.12-.55a1.74,1.74,0,0,1-2.16.4,19,19,0,0,0,.81,2.86,17,17,0,0,0,3.17,5.32,15.63,15.63,0,0,0,1.41,1.41,2.81,2.81,0,0,0,0,.29,2.2,2.2,0,0,0,1.21,1.68,1.68,1.68,0,0,0,1.8-.2A20,20,0,0,0,61,55.22a17.67,17.67,0,0,0,4.49.72,8,8,0,0,0,3.9-1.39,10.38,10.38,0,0,0,1.48-1.12l.15-.14A12.64,12.64,0,0,1,67,52.8"/><path class="cls-2" d="M66.34,61.75a.76.76,0,0,0-.59-.47c-.91,0-.55,2.38-1.63,2.38A.65.65,0,0,1,63.4,63c0-.33.24-.43.24-.7s-.21-.37-.45-.37-.44.1-.44.37.23.37.23.7a.65.65,0,0,1-.72.64c-1.07,0-.71-2.38-1.62-2.38a.76.76,0,0,0-.59.47,2.15,2.15,0,0,1-.28-.94,1,1,0,0,1,1-1c1.2,0,.92,1.64,1.5,1.64a.41.41,0,0,0,.44-.4c0-.47-.84-.92-.84-1.59s.61-1.23,1.28-1.76c.67.53,1.29,1.1,1.29,1.76s-.84,1.12-.84,1.59a.4.4,0,0,0,.44.4c.58,0,.3-1.64,1.5-1.64a1,1,0,0,1,1,1,2.15,2.15,0,0,1-.28.94m-3.15,3.32a.59.59,0,1,1,.59-.58.58.58,0,0,1-.59.58m2.39-5.76a1.5,1.5,0,0,0-.44.07V56.74a18.26,18.26,0,0,1-3.86-.58v3.22a1.78,1.78,0,0,0-.47-.07,1.5,1.5,0,0,0-1.5,1.5,2.71,2.71,0,0,0,.75,1.7c.17-.41.33-.74.56-.74.46,0,.25,2.29,1.59,2.35a1.11,1.11,0,0,0-.07.37,1.05,1.05,0,1,0,2.1,0,1.1,1.1,0,0,0-.06-.37c1.34-.06,1.11-2.35,1.58-2.35.23,0,.37.31.57.74a2.71,2.71,0,0,0,.75-1.7,1.5,1.5,0,0,0-1.5-1.5"/><path class="cls-2" d="M96.57,62.49a.27.27,0,0,0-.34-.17c-3.1.9-6.93-1.66-10.64-4.13-3.12-2.08-6.07-4-8.59-4a5.08,5.08,0,0,0-2.48.59,4.48,4.48,0,0,0-2,2.28,14.58,14.58,0,0,1-1.23,2.31,3.36,3.36,0,0,0-.74,1.78,2,2,0,0,0,.64,1.38,6.78,6.78,0,0,0,1.62,1.11l.47.23c.62.3,1,.5,1.07.85A20.59,20.59,0,0,1,69.78,66a40.54,40.54,0,0,1-13.19,0A20.29,20.29,0,0,1,52,64.66c.05-.52.43-.72,1.1-1l.48-.23a9.12,9.12,0,0,0,1.59-1,1.67,1.67,0,0,0,.64-1.29,3.39,3.39,0,0,0-.74-1.78A13.8,13.8,0,0,1,53.82,57a4.53,4.53,0,0,0-2-2.28,5.22,5.22,0,0,0-2.48-.58c-2.52,0-5.47,2-8.59,4-3.71,2.47-7.55,5-10.64,4.13a.28.28,0,0,0-.34.17.28.28,0,0,0,.15.36,12.54,12.54,0,0,1,2.57,1.69c1.11.86,2.17,1.68,3.33,1.68a8,8,0,0,0,3.71-1.1,38.6,38.6,0,0,0,3.78-2.38c2.45-1.67,5-3.39,7.36-3.58-.25.26-.49.48-.72.68a2.88,2.88,0,0,0-1.32,2.29,5.22,5.22,0,0,0,.71,2.36c.13.24.26.53.4.85a8.84,8.84,0,0,1,.54,1.72c.07.29.15.6.25,1a3.63,3.63,0,0,0,2.19,2.52c2,1,5.55,1.56,10.43,1.56s8.4-.52,10.43-1.56A3.6,3.6,0,0,0,75.8,68c.11-.38.18-.69.25-1a8.84,8.84,0,0,1,.54-1.72c.2-.43.38-.79.55-1.1a4,4,0,0,0,.66-2,3,3,0,0,0-1.39-2.35c-.24-.21-.49-.45-.75-.71,2.4.19,4.92,1.91,7.37,3.58a39.32,39.32,0,0,0,3.78,2.38,8.05,8.05,0,0,0,3.71,1.1c1.16,0,2.21-.82,3.33-1.69a13,13,0,0,1,2.57-1.69.28.28,0,0,0,.15-.35"/><path class="cls-2" d="M63.6,38.49V26.89a8.76,8.76,0,0,1,3.49.9,10.18,10.18,0,0,1,3.2,2.53,12.27,12.27,0,0,1,2.16,3.76,13.34,13.34,0,0,1,.79,4.41Zm-.41-16.43a12.27,12.27,0,0,0-6.87,1.85c-.76-.46-1.09-.9-1.09-1.42,0-1.87,5.28-2,8-2h0c2.68,0,8,.17,8,2,0,.52-.33,1-1.1,1.42a12.27,12.27,0,0,0-6.87-1.85M63,38.49H53.15a13.34,13.34,0,0,1,.79-4.41,11.87,11.87,0,0,1,2.16-3.76,10.26,10.26,0,0,1,3.19-2.53A8.91,8.91,0,0,1,63,26.88Zm15-.74a4.07,4.07,0,0,1-1.19-1.38c-.36-.76-1.89-3.78-2.14-4.18a1.91,1.91,0,0,1-.3-.9,1.31,1.31,0,0,1,.33-.8c.12-.15.45-.48.58-.68a2.87,2.87,0,0,1,.27-.35,14.46,14.46,0,0,0-1.86-2.53,15,15,0,0,0-3-2.59,2.19,2.19,0,0,0,1.19-1.85,1.68,1.68,0,0,0-.62-1.31,17.26,17.26,0,0,1,2.67-5.41l-2-.84a3.11,3.11,0,0,1,.44,2.24,2.56,2.56,0,0,1-1.11-1.5,8.41,8.41,0,0,1-.73,2.15,1.83,1.83,0,0,1,1.62-.15,2.37,2.37,0,0,1-2.5.84c-.7-.17-1.41-.55-1.38-1.09a.67.67,0,0,1,.7-.68c.44.05.46.7.33,1,.56-.32,1.15-2,.27-2.24-.7-.19-1.34.77-1.57,1.51-.13-.89-.5-1.74-1.21-1.69-.91.06-.61,1.75-.29,2.18,0-.6.38-.91.65-.89s.56.19.51.73-.82.87-1.7.87a2.17,2.17,0,0,1-2.46-1.88,3.09,3.09,0,0,1,1.77,1.05,10.53,10.53,0,0,1,0-2.69,2.79,2.79,0,0,1-1.74,1.06A3.22,3.22,0,0,1,65,13.89h-3.6a3.23,3.23,0,0,1,1.44,1.85,2.75,2.75,0,0,1-1.71-1.05,11,11,0,0,1,0,2.69,3.09,3.09,0,0,1,1.74-1.05,2.17,2.17,0,0,1-2.45,1.88c-.88,0-1.65-.33-1.71-.87s.27-.71.52-.73.59.29.64.89c.32-.43.62-2.12-.29-2.18-.71-.05-1.08.8-1.21,1.69-.23-.74-.87-1.7-1.56-1.51-.89.25-.3,1.92.27,2.24-.14-.3-.11-.95.32-1a.67.67,0,0,1,.7.68c0,.54-.68.92-1.38,1.09a2.36,2.36,0,0,1-2.49-.83,1.84,1.84,0,0,1,1.64.14,8.41,8.41,0,0,1-.73-2.15A2.6,2.6,0,0,1,54,17.18a3.15,3.15,0,0,1,.44-2.25l-2,.84a17.11,17.11,0,0,1,2.68,5.42,1.69,1.69,0,0,0-.59,1.3,2.19,2.19,0,0,0,1.17,1.85,14.92,14.92,0,0,0-3,2.59,16.75,16.75,0,0,0-3.17,5.29c.28.28,1.46,1.58,1.74,1.93a3.16,3.16,0,0,1,.8,1.73,2.64,2.64,0,0,0,.7,1.86,3.28,3.28,0,0,1,.39,1.33H63V49.8a1.48,1.48,0,0,0-1.13.54c1.14.46,2.22.87,3.31,1.21A2.87,2.87,0,0,1,65.8,50s-1.43-.14-2.2-.19V39.07h9.63a13.49,13.49,0,0,1-.78,4.25,12.39,12.39,0,0,1-2.16,3.76,10,10,0,0,1-3.2,2.52c-.19.1-.19.24-.38.31a3,3,0,0,0-.48.88,4,4,0,0,0-.22,1c.45.14.7.22,1.13.32,3.38.85,4.22.6,4.41.45h0a15.41,15.41,0,0,0,2.13-2,17,17,0,0,0,3.17-5.32A18.51,18.51,0,0,0,78,38.71c0-.42,0-.55,0-1"/><path class="cls-2" d="M69,31.6a.27.27,0,0,0-.1.28.29.29,0,0,0,.29.19.61.61,0,0,0-.22.4.66.66,0,0,0,.45-.1c0,.17,0,.27.1.32a.26.26,0,0,0,.26,0,10.49,10.49,0,0,1,1.44,3.91.64.64,0,0,0-.36-.1.63.63,0,0,0,.2.45H68.64a.27.27,0,0,0-.49-.21.64.64,0,0,0-.19-.42.6.6,0,0,0-.18.42.28.28,0,0,0-.33-.11.3.3,0,0,0-.16.32H65.23a.6.6,0,0,0,.15-.41.59.59,0,0,0-.41.15V33.36a.26.26,0,0,0,.21-.48.64.64,0,0,0,.43-.19.62.62,0,0,0-.43-.18.29.29,0,0,0,.12-.33A.31.31,0,0,0,65,32V29.2a.7.7,0,0,0,.35.15.73.73,0,0,0-.09-.41,7.75,7.75,0,0,1,1.85.91A9,9,0,0,1,69,31.6m2.72,5a.18.18,0,0,1-.1.35,11,11,0,0,0-1.85-4.89l0,0a.62.62,0,0,0,.41-.51.64.64,0,0,0-.62.28c-.06-.09-.14-.18-.21-.28a9.15,9.15,0,0,0-2.09-1.95A7.61,7.61,0,0,0,65,28.5c0-.19.26-.21.36-.05,0-.3-.24-.46-.39-.4a.27.27,0,0,0-.18.24.67.67,0,0,0-.43-.23.57.57,0,0,0,.14.46.3.3,0,0,0-.26.13.34.34,0,0,0,.33.45.19.19,0,0,1,.11-.34v3.77a.63.63,0,0,0-.63.16.61.61,0,0,0,.63.16V37a.19.19,0,0,1-.1-.35c-.31,0-.44.27-.37.42a.3.3,0,0,0,.31.15.62.62,0,0,0-.16.43.59.59,0,0,0,.43-.17.31.31,0,0,0,.15.32.35.35,0,0,0,.42-.37A.19.19,0,0,1,65,37.3H67.8a.64.64,0,0,0,.16.62.62.62,0,0,0,.17-.62H71.3a.19.19,0,0,1-.35.1c0,.31.29.43.43.35a.27.27,0,0,0,.14-.31.67.67,0,0,0,.44.15.65.65,0,0,0-.18-.43.28.28,0,0,0,.31-.15c.07-.15-.07-.42-.38-.41"/><path class="cls-2" d="M70,35.56a.51.51,0,0,0,.27-.25.3.3,0,0,1-.27,0c.09-.06.21,0,.09-.17s-.19-.19-.3-.06a.7.7,0,0,1-.88-.61.52.52,0,0,0,.26.22l.1.05h.09a.64.64,0,0,0,.22,0h0v0a.33.33,0,0,0,.3-.3c0-.31-.27-.46-.6-.74L69,33.42a2.89,2.89,0,0,0-.32-.85,1.83,1.83,0,0,0-.1-.36,1,1,0,0,0,.18,1.21c.32.35,1,.69,1,1a.21.21,0,0,1-.18.15H69.5l-.07,0a.37.37,0,0,1-.14-.07,1.06,1.06,0,0,1-.24-.18,7.81,7.81,0,0,1-.71-.87,1.25,1.25,0,0,1-.12-1.13c.22-.31-.14-.94-.35-1.1a.53.53,0,0,0,0-.32.46.46,0,0,1-.2,0c0-.12-.08-.14-.16-.15s-.13-.1-.15-.16-.1.14-.19.15-.16,0-.2,0a.27.27,0,0,1-.24.08c-.13,0-.12.08-.11.17s0,.15.09.18l0,0,.1.12.07-.13c0-.05.22-.06.25.06s0,.1-.06.12l-.28,0c-.07,0-.07.09-.07.15s.09.12.24.08.42-.07.42.06c0,.34-.38.33-.47.74a.76.76,0,0,1-.24-.23,1.67,1.67,0,0,0-.29-.35,1.68,1.68,0,0,0-.29-.24.27.27,0,0,1-.15-.29c0-.12.06-.23,0-.35a.26.26,0,0,0,0-.1.19.19,0,0,0-.18-.12.16.16,0,0,1,.07.12l-.06.07a.09.09,0,0,0,0,.12s0,0,0,0a.15.15,0,0,1,0,.06s0,0,0,0-.07-.21-.15-.22h-.06s0,0,0,0-.1-.16-.21,0,.07,0,.08,0a.81.81,0,0,0,0,.09c0,.09.06.13.16.13s0,0,0,0,0,0,0,0a0,0,0,0,1,0,0c-.16-.07-.23,0-.23.07v.07c-.06,0-.07.12,0,.18s0-.08,0-.1h0l0,0s0,0,.09,0a0,0,0,0,1,0,0l0,0s0,0,0,0-.08.19,0,.23a.13.13,0,0,1-.23-.1c-.14.22.08.37.27.29,0,.07,0,.23,0,.23s0,0,0,0,0,0,0,0,0,.11.1.12a0,0,0,0,1,0-.06,1.19,1.19,0,0,1,.09.15,1.51,1.51,0,0,0,.68.74,1.76,1.76,0,0,0-.48.46c-.12.11-.28.23-.39.17a.68.68,0,0,0-.12-.12.15.15,0,0,0-.13,0l-.07,0a.2.2,0,0,0-.21.06.22.22,0,0,1,.15,0v.07s0,.1.25.09c0,0,0,0,0,0a.1.1,0,0,1-.11,0c-.09,0-.14-.1-.21,0l0,.06h0c-.08,0-.16.18-.07.25a.16.16,0,0,1,.07-.13s0,0,0,0,.13.14.27-.07c0,0,0,0,0,0s-.11.24,0,.26h.06v0a.19.19,0,0,0,.24.12.23.23,0,0,1-.13-.14H66c.08-.08,0-.18,0-.23s0,0,0,0,.09.14.21.08a.23.23,0,0,0,.08-.14.67.67,0,0,1,.37-.07c0-.07.07-.18.22-.21a.24.24,0,0,1,.27,0,1,1,0,0,1,.15-.26c0,.6.8.59,1,.95a1.43,1.43,0,0,0-.67-.13c-.2,0-.54.22-.59.45a.86.86,0,0,0,.35.64c-.23,0-.31,0-.53,0h0c-.18,0-.21-.3-.43-.22,0,0,0,0-.06.05h0c-.09,0-.2.1-.18.19a.21.21,0,0,1,.14-.08.1.1,0,0,0,0,0s0,.08.08.08.06,0,.09,0a0,0,0,0,1,0,0c0,.08-.28,0-.23.18l0,.07c0,.07.05.14.17.1s-.06,0,0-.08h0s0,0,0,0a0,0,0,0,1,0,0l0,0s0,0,0,.05a.25.25,0,0,0,0,.07c0,.08.11.17.23.08s-.11,0-.12-.06l.06,0a.11.11,0,0,0,0-.08s0,0,0,0h.06s0,0,0,0a.14.14,0,0,0,.17.07.14.14,0,0,0,.08-.06l.09.06c0-.09,0-.16.23,0l.14-.11s.18.08.25,0,0-.1,0-.19-.13-.17-.17-.34.36-.47.6-.42a1.38,1.38,0,0,0,.76.84c.28.1.39-.21.48-.17a.13.13,0,0,1,0,.09c0,.13,0,.26,0,.32s-.18,0-.28,0a.1.1,0,0,0-.1,0c-.09,0-.19.09-.18.19a.35.35,0,0,1,.15-.08v0a.13.13,0,0,0,.22.08s0,0,0,0-.19.17-.09.21l.06,0a.16.16,0,0,0,.11.16s0-.07,0-.15h.06c.08,0,0-.14.13-.18s0,0,0,0,0,.19,0,.21l.06,0c0,.06.1.11.21.06s-.08,0-.1-.07l.06-.08c0-.18-.11-.18-.11-.26s.19,0,.19-.21v0c.09-.05.17-.11.18-.17a.6.6,0,0,1-.23,0Z"/><path class="cls-2" d="M61.05,40.93h-.14a.31.31,0,0,0-.36.27.3.3,0,0,0,.32.33H61a.59.59,0,0,0,0,.14c-.05.29-.12.78-.21,1.34l-1.47-2.1a6.78,6.78,0,0,1,1.54-.57c.24,0,.29.11.24.59m-.56,3.66-2.32-3.33a6.29,6.29,0,0,0,.74-.22l1.75,2.49c-.06.35-.12.71-.17,1.06m-.24,1.5L57,41.36h.3l.51,0,2.63,3.78c0,.37-.11.7-.15,1M56.53,41.4l3.61,5.19c-1.93-.76-3.85-2.49-3.61-5.19M61.9,41h-.17v-.15a.9.9,0,0,0-1-1c-.55,0-1.62.72-3.12.72A4.21,4.21,0,0,1,55.8,40l-.19.45v0a.37.37,0,0,0-.37-.37.37.37,0,0,0,0,.74.36.36,0,0,0,.29-.14l-.19.45.2.08a6.13,6.13,0,0,0,4.43,6c.44-.12.89,0,.89.43a.37.37,0,0,1-.42.42c-.17,0-.29-.1-.29-.22s.35-.08.39-.22-.08-.26-.28-.26a.5.5,0,0,0-.52.48.65.65,0,0,0,.68.65.86.86,0,0,0,.92-1c.16,0,.34,0,.38-.17l0-.46-.16,0,.12-5.21h.12a.3.3,0,0,0,.37-.28A.32.32,0,0,0,61.9,41"/><path class="cls-2" d="M59.27,30s0-.07,0-.07a.07.07,0,0,0,.08-.05s0-.06-.06-.09.06,0,0-.05-.07,0-.09,0,0,0,.05,0,0,0,0,0l.19.09s0,0,0,0,0,.06,0,.07,0-.06-.06-.07,0,0,0,.07-.08,0-.1,0a.06.06,0,0,0,0,.09s0,.05,0,.1-.07.1-.14.06a.1.1,0,0,1,0-.15m.21-.47a.09.09,0,0,1-.14,0c-.05-.05,0-.06-.06-.16l.2.12m.15.07a.73.73,0,0,0,.23.09c-.11,0-.08.07-.15.06s-.1-.08-.08-.15m-.51.13h0m2.15.78c.7,0,1-.22,1-.44,0-.78-1.93-.3-1.93-.77a.32.32,0,0,1,.14-.22h0c1-.09,1-.76,1.68-.89-.84-.12-1,.54-1.31.57a.44.44,0,0,0,.24-.4c-.17.22-.55.24-.75.51a.17.17,0,0,0,0,.13.34.34,0,0,0-.2.29c0,.74,2,.23,2,.77,0,.18-.34.31-.88.31s-.69-.29-1.44-.09c0-.13.25-.37.15-.48a.19.19,0,0,0,.13-.15.34.34,0,0,0-.15-.07s0-.08,0-.1a.3.3,0,0,0,0-.11.61.61,0,0,0-.17-.11.3.3,0,0,0-.17-.05.34.34,0,0,0-.11,0c-.05,0-.1,0-.1.05a.2.2,0,0,0-.14-.06.3.3,0,0,0,0,.21c-.07,0-.14.18-.21.16s0,.08.07.08-.09.23-.15.24,0,0,.05.05a2.08,2.08,0,0,0-.1.45h0a.61.61,0,0,0-.15-.12c-.12-.07-.11-.13-.09-.24s.08-.18.09-.27a.37.37,0,0,0,0-.09.15.15,0,0,0-.15-.1.1.1,0,0,1,0,.1l-.06.05s0,.06,0,.1,0,0,0,0l0,0s0,0,0,0,0-.17-.1-.17H58.3c0-.08-.07-.13-.18-.05s.06,0,.07,0,0,.07,0,.08,0,.1.13.1h0s0,0,0,0,0,0,0,0-.2,0-.21,0a.35.35,0,0,0,0,.06s-.08.09,0,.15,0-.08,0-.09h0a0,0,0,0,0,0,0s0,0,.08,0,0,0,0,0l0,0s0,0,0,0-.11.17,0,.19,0,0,0,0-.26.13-.22,0c-.16.18.05.32.23.23h0s0,.05.05.06a0,0,0,0,1,0,0s0,0,0,0,0,.1.07.1,0-.06,0-.06.08.13.18.24a1.74,1.74,0,0,1-.43.13A1.09,1.09,0,0,0,58,31c-.11.06-.38.16-.46,0s0-.08,0-.14a.17.17,0,0,0-.09-.07h-.07a.14.14,0,0,0-.18,0,.13.13,0,0,1,.1.07l0,0s0,.09.17.15c0,0,0,0,0,0a.09.09,0,0,1-.1,0c-.07-.05-.08-.13-.16-.08l0,0h0c-.07,0-.2.09-.14.17a.14.14,0,0,1,.09-.07.17.17,0,0,1,0,.05c0,.09.05.16.23,0,0,0,0,0,0,0s-.16.15-.07.21l0,0s0,0,0,0,.09.17.16.17a.18.18,0,0,1-.06-.15h0c.08,0,.05-.14.09-.17s0,0,0,0a.12.12,0,0,0,.13.13.13.13,0,0,0,.13-.15s0,0,0,0,.07.07.05.12a.2.2,0,0,0,.08-.08.16.16,0,0,1,0,.18.25.25,0,0,0,.17-.17l0,.05h0a.38.38,0,0,0,.21,0s0,0,0,0a.11.11,0,0,0,0,.1s0,0,0,0,0,.1.06.17c0-.26.17-.16.33-.27s0,0,0,0l-.07.09c.06,0,.2-.06.2-.16s.05-.05.1-.09a.17.17,0,0,0,.19-.08s0,.1,0,.13c.17,0,.36-.19.42-.21.37-.07-.23-.34.53-.29a.41.41,0,0,0,.22-.09c-.06.12-.06.35,0,.36a.52.52,0,0,1,.2.09v0a.28.28,0,0,0-.16,0c-.18.11-.18-.27-.37-.2l-.05,0c-.08,0-.18.09-.16.17a.18.18,0,0,1,.12-.07v0s0,.06.07.06.05,0,.07,0,0,0,0,0-.23,0-.19.16l0,.06c0,.06,0,.12.14.08a.09.09,0,0,1,0-.07s0,0,0,0,0,0,0,0h0s0,0,0,0,0,0,0,0,0,.06,0,.06.09.15.2.08-.09,0-.1-.05l0,0a.09.09,0,0,0,0-.07s0,0,0,0h.05s0,0,0,0a.12.12,0,0,0,.15.06c.12,0,0-.15.12-.17a.08.08,0,0,1,.07,0c.1,0,.25,0,.27,0A.26.26,0,0,0,61,31.1c-.06,0,0-.11-.06-.2a.89.89,0,0,0,.38.09c.27,0,0,0,.13-.11a.42.42,0,0,1,.32,0s.07,0,.06.06,0,.16,0,.22-.14,0-.22,0a.12.12,0,0,0-.08,0c-.07,0-.15.08-.15.16a.2.2,0,0,1,.13-.06v0a.1.1,0,0,0,.17.07s0,0,0,0-.16.13-.08.17l.05,0a.12.12,0,0,0,.09.13s0-.05,0-.12h.05c.06,0,0-.12.1-.16s0,0,0,0,0,.15,0,.17H62a.11.11,0,0,0,.16.05s-.06,0-.07-.06a.15.15,0,0,0,0-.06c0-.15-.08-.15-.08-.21s.15,0,.15-.17a.11.11,0,0,0-.07-.09h0s.08,0,.1,0-.07-.08-.09-.14a0,0,0,0,1,0,0,.15.15,0,0,0,0-.15s-.16.1-.17,0,0-.08-.11-.06-.27-.07-.61-.1c0,0,0,0,0,0"/><path class="cls-2" d="M58.09,34.23h0s0,0,0,0M57.53,33c0-.05,0-.09.07-.09s.07,0,.08,0,0-.08-.07-.12.07,0,0-.06-.08,0-.09,0,0,0,0-.05a.06.06,0,0,1,.07,0l.21.11s0,0,0,.05,0,.07,0,.08,0-.07-.05-.08,0,0,0,.08-.1,0-.12,0,0,.07,0,.11,0,.06,0,.11a.12.12,0,0,1-.16.08.12.12,0,0,1,0-.17m.25-.56c0,.06-.11.11-.17.05s0-.07-.06-.18a1.42,1.42,0,0,0,.23.13m.17.08a1,1,0,0,0,.27.11c-.13,0-.09.08-.17.07s-.11-.1-.1-.18m-1.09,1s0,0,0,0h0m5.38-.4c0-.21-.23-.35-.92-.35s-2.24.26-2.24-.13c0-.19.3-.17.66-.15a.35.35,0,0,0,.15.08c.89.26,1.94-.21,2.48-.06-.64-.48-1.16,0-1.84-.13.39,0,.53-.11.55-.22-.31.2-.89-.1-1.25.13l-.06,0c-.49,0-.89,0-.89.31,0,.69,1.85.29,2.43.29s.7.06.7.17-.57.21-.9.21a14.73,14.73,0,0,0-2.93-.09c.07-.14.24-.34.15-.45a.2.2,0,0,0,.14-.17.3.3,0,0,0-.16-.08s0-.08-.05-.12,0-.1,0-.12a.76.76,0,0,0-.2-.13.77.77,0,0,0-.21-.06.44.44,0,0,0-.13,0s-.1,0-.11,0a.26.26,0,0,0-.16-.07.32.32,0,0,0,0,.24c-.08,0-.16.22-.24.19s0,.09.08.09-.1.27-.18.28.08.09.12.1a1.23,1.23,0,0,0,0,.26L57,33.22h0l-.06,0,.06,0-.08,0a3,3,0,0,0-.3-.26c-.14-.08-.14-.15-.13-.28s.07-.24.07-.35l0-.1a.16.16,0,0,0-.18-.12.13.13,0,0,1,.07.12l-.06.06s0,.08,0,.12a0,0,0,0,1,0,0,.43.43,0,0,0,0,.05s0,0,0,0-.06-.21-.13-.21H56.1c0-.09-.09-.16-.2,0a.14.14,0,0,1,.09,0,.29.29,0,0,0,0,.09c0,.09,0,.12.15.13h0a.09.09,0,0,0,0,0s0,0,0,0-.22,0-.23.08v.06c-.06,0-.08.12,0,.19s0-.09,0-.1h0l0,0a.19.19,0,0,0,.1,0s0,0,0,0,0,0,.05,0,0,0,0,0-.1.2,0,.22,0,0,0,0A.13.13,0,1,1,56,33c-.16.22.09.39.28.28,0,0,0,0,0,0s0,.07.06.07a0,0,0,0,1,.05,0s0,0,0,0,0,.12.08.13,0-.08,0-.08.12.15.28.24.22.19.3.11c0,.13.11.28.08.28a2,2,0,0,0-.48,0c-.13.07-.45.19-.54.06s0-.09-.07-.16a.14.14,0,0,0-.1-.08h-.08a.18.18,0,0,0-.21,0,.13.13,0,0,1,.12.08.15.15,0,0,0,0,.06s0,.11.19.19a0,0,0,0,1,0,0,.11.11,0,0,1-.11,0c-.08-.06-.09-.15-.19-.09l-.06,0h0c-.09,0-.23.1-.17.2a.21.21,0,0,1,.11-.09l0,.07c0,.1.06.18.28,0,0,0,0,0,0,0s-.19.18-.08.25l.05,0v0a.2.2,0,0,0,.17.21.27.27,0,0,1-.06-.18H56c.1,0,.05-.16.11-.19s0,0,0,0,0,.17.15.16a.17.17,0,0,0,.16-.17s0,0,0,0a.11.11,0,0,1,.06.12s.06,0,.09-.08a.18.18,0,0,1,0,.21.33.33,0,0,0,.19-.21l.05.07h0a.46.46,0,0,0,.24,0s0,0,0,0a.16.16,0,0,0,0,.12.1.1,0,0,1,.05-.06s0,.12.07.19c0-.31.2-.19.39-.31,0,0,0,0,0,0a.13.13,0,0,1-.08.1c.21,0,.55-.27.6-.41a.73.73,0,0,1,.2,0c.6,0,.18-.55,1.15-.38a.46.46,0,0,0,.24-.1c-.07.12-.07.39.06.41a.52.52,0,0,1,.23.1s0,0,0,0l-.19,0c-.2.14-.21-.31-.43-.22l-.06,0c-.08,0-.2.11-.18.2a.18.18,0,0,1,.14-.08v0s0,.07.08.07,0,0,.08,0a0,0,0,0,1,0,0c0,.08-.27,0-.22.18a.27.27,0,0,0,0,.07c0,.07,0,.14.16.1s-.06,0,0-.09h0s0,0,0,0h0l0,0s0,0,0,0,0,.07,0,.07a.13.13,0,0,0,.23.09.16.16,0,0,1-.12-.06l.06,0a.12.12,0,0,0,0-.09s0,0,0,0h.06s0,0,0,0a.13.13,0,0,0,.17.07c.14,0,0-.18.14-.21h.08c.12,0,.29,0,.32,0a.3.3,0,0,0-.11-.33c-.07,0,0-.13-.06-.23a1.13,1.13,0,0,0,.43.1.79.79,0,0,0,.54-.13.49.49,0,0,1,.38,0s.07,0,.06.08,0,.18,0,.25-.16,0-.26,0a.09.09,0,0,0-.09,0,.21.21,0,0,0-.17.18.37.37,0,0,1,.14-.08.1.1,0,0,0,0,0,.12.12,0,0,0,.2.08s0,0,0,0-.17.16-.08.19a.15.15,0,0,0,.06,0,.15.15,0,0,0,.1.15s0-.06,0-.14h0c.07,0,0-.14.12-.18h0c0,.08,0,.18,0,.21H62a.13.13,0,0,0,.19.06s-.07,0-.08-.07.05-.06.05-.08-.1-.17-.1-.24.17,0,.17-.19a.1.1,0,0,0-.07-.11h0c.05,0,.1,0,.12-.06s-.08-.09-.1-.16a0,0,0,0,1,0,0s.07-.08.05-.18c0,.06-.18.12-.19,0s0-.09-.13-.07a3.94,3.94,0,0,1-.76,0c.46,0,1.12-.12,1.12-.38"/><path class="cls-2" d="M56.74,36.08s0-.08.06-.08a.08.08,0,0,0,.09-.06s0-.07-.08-.1.07,0,0-.06-.08,0-.09,0,0,0,0-.05,0,0,.07,0l.21.1a.07.07,0,0,1,0,.06s0,.06,0,.06,0-.06-.06-.06,0,0,0,.07-.1,0-.12,0a.07.07,0,0,0,0,.1s0,.06,0,.1-.08.12-.15.08a.1.1,0,0,1,0-.16m.24-.53c0,.05-.11.1-.16.05s0-.07-.06-.18a1.12,1.12,0,0,0,.22.13m.16.08a1.42,1.42,0,0,0,.26.1c-.12,0-.09.07-.17.07s-.1-.11-.09-.17m4.8.53c0-.2-.22-.33-.88-.33s-2.68.25-2.68-.12.69-.14,1.19-.13a.27.27,0,0,0,.14.1c.85.24,1.73-.33,2.34-.13-.48-.43-1.1.05-1.74-.08.38,0,.77-.08.79-.18-.29.19-1.11-.13-1.46.09a.1.1,0,0,0,0,0c-.63,0-1.39-.08-1.39.29,0,.66,2.3.27,2.85.27s.67.06.67.16-.55.19-.86.19a16.26,16.26,0,0,0-3.51,0c0-.14.25-.36.16-.48a.2.2,0,0,0,.14-.16.3.3,0,0,0-.16-.08s0-.08,0-.11,0-.1-.05-.11a.55.55,0,0,0-.19-.13.65.65,0,0,0-.2-.06s-.11,0-.12,0-.1,0-.11,0a.24.24,0,0,0-.15-.07.37.37,0,0,0,0,.24c-.08,0-.16.2-.23.18a.14.14,0,0,0,.07.08c-.06.12-.09.26-.17.26l.08.08a.75.75,0,0,0,0,.2l-.07,0h-.1l-.11,0c-.1,0-.18-.18-.35-.28a.25.25,0,0,1-.14-.27c0-.12.06-.22,0-.33l0-.1a.17.17,0,0,0-.18-.11.13.13,0,0,1,.07.12l0,.06a.08.08,0,0,0,0,.11s0,0,0,0a.2.2,0,0,0,0,.05s0,0,0,0-.07-.2-.14-.21h-.05v0c0-.08-.09-.15-.19,0s.06,0,.08,0l0,.08c0,.09.06.12.16.12a0,0,0,0,1,0,0,.06.06,0,0,1,0,0s0,0,0,0-.21,0-.21.07,0,0,0,.05-.07.12,0,.18,0-.08,0-.09h0l0,0s0,0,.09,0h0l0,0s0,0,0,0-.08.2,0,.22,0,0,0,0c0,.18-.25.15-.25,0-.13.21.11.38.29.27h0s0,.07.06.07a0,0,0,0,1,0,0s0,0,0,0,0,.11.09.12,0-.07,0-.07a1.89,1.89,0,0,0,.43.4s.13,0,.15-.08,0,0,.06.06.09.28.06.28a2.53,2.53,0,0,0-.54,0c-.13.07-.43.18-.52,0s0-.08-.06-.14a.12.12,0,0,0-.09-.08h-.08a.17.17,0,0,0-.2,0,.13.13,0,0,1,.12.08s0,0,0,0,0,.11.18.18c0,0,0,0,0,0a.07.07,0,0,1-.1,0C55,37.07,55,37,54.9,37l-.06,0h0c-.08,0-.21.11-.15.2a.18.18,0,0,1,.1-.09l0,.06c0,.1.06.18.26,0,0,0,0,0,0,0s-.19.17-.08.23l0,0h0a.19.19,0,0,0,.16.2.22.22,0,0,1-.06-.18s0,0,.06,0,.05-.15.1-.19,0,0,0,0,0,.16.14.15a.17.17,0,0,0,.16-.16s0,0,0,0a.12.12,0,0,1,0,.12.2.2,0,0,0,.08-.08.16.16,0,0,1,0,.19.24.24,0,0,0,.18-.19s0,0,0,.06h0a.34.34,0,0,0,.23,0s0,0,0,0a.22.22,0,0,0,0,.12s0-.06,0-.06,0,.11.06.18c0-.29.37-.15.55-.26,0,0,0,0,0,0a.2.2,0,0,1-.08.1.45.45,0,0,0,.24-.09l0,0,.3-.13a.28.28,0,0,0,0-.09l.1,0h0c.19,0,.17-.15.25-.13,1.07.14.46-.46,1.72-.34.06,0,.08,0,.14-.08-.07.13-.07.33.06.35a.49.49,0,0,1,.22.1s0,0,0,0a.53.53,0,0,0-.18,0c-.2.13-.2-.29-.41-.21l-.06,0c-.08,0-.19.1-.17.18a.2.2,0,0,1,.13-.07v0s0,.07.07.07.06,0,.09,0l0,0c0,.08-.26,0-.21.17l0,.07c0,.06,0,.13.16.09s-.06,0-.06-.07h.06a0,0,0,0,0,0,0h0l0,0s0,0,0,0l0,.07c0,.08.11.16.23.08,0,0-.11,0-.12,0l0,0s0,0,0-.08a0,0,0,0,1,0,0h.05s0,0,0,0a.13.13,0,0,0,.17.06c.13,0,0-.17.13-.19H60c.11,0,.28,0,.3,0a.29.29,0,0,0-.1-.32c-.07,0,0-.12-.06-.22a1,1,0,0,0,.41.1.77.77,0,0,0,.51-.12.44.44,0,0,1,.36,0s.07,0,.06.07,0,.17,0,.24-.16,0-.24,0a.15.15,0,0,0-.1,0,.2.2,0,0,0-.16.17.37.37,0,0,1,.14-.07v0c0,.11.13.15.2.07s0,0,0,0-.17.15-.08.19l.05,0c0,.07,0,.14.1.14s0,0,0-.12h0c.07,0,0-.13.11-.17h0c0,.08,0,.17,0,.19h.06a.12.12,0,0,0,.18.06s-.07,0-.08-.07l0-.06c.05-.16-.09-.17-.09-.23s.16,0,.16-.2a.14.14,0,0,0-.07-.1h0s.09,0,.12,0-.08-.09-.1-.16,0,0,0,0a.18.18,0,0,0,0-.17c0,.06-.17.12-.18,0s0-.09-.13-.06a4.81,4.81,0,0,1-.72-.06c.38,0,1.07-.11,1.07-.36"/><path class="cls-2" d="M67,41.45h0m-1-1.53h0m0,.23h0Zm.17.3c0-.05,0-.09.07-.09s.07,0,.09,0,0-.07-.08-.1.08,0,0-.06-.08,0-.09,0,0,0,0-.06a.08.08,0,0,1,.07,0l.21.1s0,0,0,.06,0,.06,0,.07,0-.07,0-.07,0,0,0,.07-.1,0-.13,0a.08.08,0,0,0,0,.1.17.17,0,0,1,0,.11s-.07.11-.14.07a.11.11,0,0,1,0-.16m.25-.53c0,.06-.1.11-.17,0s0-.07-.06-.18a2,2,0,0,0,.23.13m.16.08a1,1,0,0,0,.25.1c-.12,0-.09.07-.16.07s-.11-.1-.09-.17m4.73,1.22s0,0,0,0a.2.2,0,0,0,.07-.18c0,.06-.18.12-.19,0s0-.09-.12-.06a5,5,0,0,1-.77,0s0,0,0,0c.38,0,1.07-.09,1.07-.33s-.23-.33-.88-.33-2.67.24-2.67-.13S68.48,40,69,40a.26.26,0,0,0,.14.09c.85.24,1.81-.39,2.33-.25-.67-.23-1.09.17-1.73,0,.38,0,.77-.08.79-.18-.29.19-1.11-.13-1.46.09l0,0c-.63,0-1.38-.08-1.38.28,0,.66,2.29.28,2.84.28s.67,0,.67.16-.54.19-.86.19a15.64,15.64,0,0,0-3.51,0c0-.15.26-.37.16-.48a.22.22,0,0,0,.14-.17A.28.28,0,0,0,66.9,40s0-.08,0-.11,0-.1,0-.12a1,1,0,0,0-.19-.13.55.55,0,0,0-.2-.05s-.11,0-.12,0-.1,0-.1,0a.31.31,0,0,0-.16-.06.35.35,0,0,0,0,.23c-.08,0-.16.2-.23.18a.14.14,0,0,0,.07.09c-.06.11-.09.25-.17.26s.09.09.11.09,0,.14,0,.2l-.11,0h-.11l-.1,0c-.11,0-.19-.17-.36-.28S65,40.15,65,40s.06-.21,0-.32l0-.1a.17.17,0,0,0-.18-.11.13.13,0,0,1,.07.11l0,.06a.11.11,0,0,0,0,.12s0,0,0,0l0,.05s0,0,0,0-.07-.2-.14-.21h-.06s0,0,0,0-.09-.15-.19,0a.13.13,0,0,1,.08,0,.51.51,0,0,0,0,.09c0,.08,0,.12.14.12s0,0,0,0,0,0,0,0,0,0,0,0-.21,0-.21.07a.11.11,0,0,0,0,.06s-.07.12,0,.18,0-.09,0-.1h0l0,0s0,0,.09,0h0l0,0s0,0,0,0-.09.2,0,.23a0,0,0,0,1,0,0c0,.19-.26.15-.25,0-.13.21.11.37.29.26,0,0,0,0,0,0s0,.06.06.06a0,0,0,0,1,0,0,0,0,0,0,1,0,0,.11.11,0,0,0,.08.12s0-.08,0-.08a1.64,1.64,0,0,0,.42.42s.1-.06.16-.1a.16.16,0,0,0,.09.12l0,0c0,.12.13.25.1.25a1,1,0,0,0-.38,0c-.12.07-.42.17-.51.05s0-.09-.06-.15a.14.14,0,0,0-.1-.08h-.07a.19.19,0,0,0-.2,0,.18.18,0,0,1,.11.08l0,.06s0,.11.18.17c0,0,0,0,0,0a.11.11,0,0,1-.11,0c-.07-.06-.08-.14-.17-.09l-.06,0h0c-.08,0-.21.1-.16.2a.13.13,0,0,1,.11-.09s0,0,0,.06.06.17.27,0c0,0,0,0,0,0s-.18.17-.08.23l0,0s0,0,0,0a.19.19,0,0,0,.17.19.21.21,0,0,1-.07-.17l.06,0c.1,0,.05-.16.11-.2s0,0,0,0a.13.13,0,0,0,.14.14.15.15,0,0,0,.15-.16s0,0,0,0a.1.1,0,0,1,.05.12.22.22,0,0,0,.09-.08.18.18,0,0,1,0,.2.29.29,0,0,0,.19-.2.25.25,0,0,1,0,.07h0a.46.46,0,0,0,.23,0h0a.15.15,0,0,0,0,.12s0-.06,0-.06,0,.11.07.18c0-.29.18-.17.36-.29,0,0,0,0,0,0a.24.24,0,0,1-.08.1c.06,0,.33-.12.33-.23s.1,0,.19,0,.16-.14.24-.13c1.07.14.46-.46,1.72-.34.06,0,.09-.07.14-.12-.07.12-.07.37.06.4a.47.47,0,0,1,.22.09s0,0,0,0l-.18,0c-.19.13-.2-.29-.41-.21l-.06,0a.17.17,0,0,0-.17.18.21.21,0,0,1,.13-.08v0s0,.07.08.07l.08,0,0,0c0,.08-.26,0-.21.18l0,.07c0,.06,0,.12.16.09s-.06-.05,0-.08h0s0,0,0,0h0a0,0,0,0,1,0,0s0,0,0,0a.24.24,0,0,0,0,.08c0,.07.11.16.22.08s-.1,0-.11-.06l.06,0a.19.19,0,0,0,0-.08s0,0,0,0H69s0,0,0,0a.14.14,0,0,0,.16.07c.14-.05,0-.17.14-.2h.08c.11,0,.27,0,.3,0a.28.28,0,0,0-.1-.31c-.07,0,0-.13-.06-.23a1,1,0,0,0,.41.11.91.91,0,0,0,.54-.13.51.51,0,0,1,.37,0s.06,0,0,.08,0,.17,0,.24-.16,0-.25,0a.15.15,0,0,0-.1.05c-.07,0-.17.08-.17.16a.26.26,0,0,1,.14-.06v0a.11.11,0,0,0,.19.07s0,0,0,0-.19.15-.09.19l0,0a.13.13,0,0,0,.08.14.13.13,0,0,1,0-.13h0c.07,0,0-.13.13-.17h0c0,.08-.06.17,0,.19L71,42a.12.12,0,0,0,.18.05s-.06,0-.07-.06l0-.07c.06-.16-.07-.17-.07-.23s.16,0,.18-.19a.1.1,0,0,0-.06-.1h0s.08,0,.12,0c-.12,0-.08-.09-.09-.16"/><path class="cls-2" d="M66.53,43.07c-.07,0-.1-.1-.09-.17a.86.86,0,0,0,.25.1c-.11,0-.09.07-.16.07m-.11.14s0-.06,0-.07,0,0,0,.07-.09,0-.12,0,0,.06,0,.1,0,0,0,.1a.11.11,0,0,1-.14.07.12.12,0,0,1,0-.16s0-.07.06-.07.07,0,.09,0,0-.07-.08-.1.07,0,.05-.06-.07,0-.08,0,0,0,0,0,0,0,.06,0l.2.09s0,0,0,0,0,.06,0,.07m-.12-.38c0,.06-.1.1-.16.05s0-.07-.06-.17a1.24,1.24,0,0,0,.22.12m2,0c0,.05.06.08.15.11.81.23,1.72-.38,2.21-.24-.64-.22-1,.16-1.64,0,.35,0,.73-.08.75-.17-.28.18-1.06-.12-1.39.08l0,0c-.44,0-.8,0-.8.28,0,.63,1.67.26,2.2.26s.46,0,.46.15-.6.19-.9.19a12.9,12.9,0,0,0-2.65-.07c.07-.14.22-.31.13-.41a.18.18,0,0,0,.13-.16.3.3,0,0,0-.15-.07.09.09,0,0,0,0-.11.3.3,0,0,0,0-.11.9.9,0,0,0-.18-.12.37.37,0,0,0-.19-.05s-.1,0-.11,0-.1,0-.11,0a.18.18,0,0,0-.14-.06.27.27,0,0,0,0,.22c-.08,0-.15.2-.22.17s0,.08.07.08-.09.25-.16.26a.17.17,0,0,0,.06.06,2,2,0,0,0,0,.24l-.07,0h0a.65.65,0,0,1-.33-.09.24.24,0,0,1-.13-.26c0-.11.06-.21.05-.31l0-.1c0-.06-.12-.12-.17-.1a.15.15,0,0,1,.07.1s0,0,0,.06,0,.08,0,.11a0,0,0,0,1,0,0v0h0c0-.08-.06-.2-.13-.2h0v0c0-.08-.09-.14-.18-.05s.06,0,.07,0a.31.31,0,0,0,0,.08c0,.08.06.11.14.11s0,0,0,0,0,0,0,0,0,0,0,0-.19,0-.2.07a.18.18,0,0,0,0,.06c-.05,0-.07.11,0,.16s0-.07,0-.08h0a.07.07,0,0,0,0,0s0,0,.08,0,0,0,0,0,0,0,0,0a0,0,0,0,1,0,0c-.09.09-.08.18,0,.2l0,0c0,.18-.24.14-.24,0-.12.2.11.35.28.25h0s0,.07.06.07,0,0,0,0,0,0,0,0a.11.11,0,0,0,.08.12s0-.07,0-.07,0-.08.24,0a.2.2,0,0,0,.08.08l.16,0c0,.12,0,.31,0,.31a1.11,1.11,0,0,0-.36,0c-.11.06-.4.17-.48,0a1,1,0,0,1-.06-.14.14.14,0,0,0-.1-.08h-.06a.17.17,0,0,0-.2,0,.17.17,0,0,1,.11.07.11.11,0,0,0,0,.06s0,.1.17.16c0,0,0,0,0,0a.09.09,0,0,1-.1,0c-.07-.06-.08-.14-.16-.09l-.07,0h0c-.07,0-.2.1-.14.19a.12.12,0,0,1,.1-.08.43.43,0,0,0,0,.05c0,.1.06.17.25,0,0,0,0,0,0,0s-.17.16-.07.23l0,0v0c0,.1.1.18.16.18a.2.2,0,0,1-.06-.16h.06c.09,0,0-.14.1-.18s0,0,0,0,0,.15.14.14a.15.15,0,0,0,.14-.16h0a.1.1,0,0,1,0,.12.36.36,0,0,0,.08-.09.18.18,0,0,1,0,.2.27.27,0,0,0,.17-.19.08.08,0,0,1,0,.06h0a.46.46,0,0,0,.21,0s0,0,0,0a.11.11,0,0,0,0,.11s0-.06,0-.06,0,.11.06.17c0-.27.25-.2.42-.32,0,0,0,0,0,0a.14.14,0,0,1-.08.09c.19.12.38-.14.44-.28a.12.12,0,0,0,0,0s0,0,0,.08c.18,0,.16-.13.23-.13.55,0,.13-.45,1-.3a.34.34,0,0,0,.22-.1c-.06.12-.07.36.06.38a.52.52,0,0,1,.2.09s0,0,0,0a.32.32,0,0,0-.17,0c-.19.12-.19-.28-.39-.2l-.06,0c-.07,0-.18.1-.16.18a.18.18,0,0,1,.12-.07v0a.06.06,0,0,0,.07.07s0,0,.08,0,0,0,0,0-.24,0-.2.16l0,.06c0,.06,0,.13.15.09s-.06,0,0-.07h0s0,0,0,0h0a0,0,0,0,1,0,0s0,0,0,0v.07c0,.07.1.15.22.08,0,0-.11,0-.11-.06l0,0a.12.12,0,0,0,0-.07s0,0,0,0h.05s0,0,0,0a.11.11,0,0,0,.15.06c.14,0,0-.16.13-.18h.08c.1,0,.26,0,.29,0a.3.3,0,0,0-.1-.31c-.07,0,0-.11-.06-.21a.78.78,0,0,0,.39.1,1,1,0,0,0,.56-.12.52.52,0,0,1,.36,0s.06,0,0,.07,0,.17-.07.23-.15,0-.24,0a.14.14,0,0,0-.09,0,.29.29,0,0,0-.2.17.3.3,0,0,1,.15-.07v0c0,.1.09.13.17.07s0,0,0,0-.2.14-.13.18l0,0c0,.07,0,.13.06.14s0-.06,0-.12h.05c.06,0,.06-.13.15-.17h0c0,.07-.08.16,0,.18h0c0,.06.07.1.17.06s-.06,0-.06-.06l.06-.07c.08-.16,0-.16,0-.22s.15,0,.2-.18,0-.08,0-.09h0s.09,0,.13-.06c-.12,0-.06-.08-.06-.14a0,0,0,0,1,0,0,.17.17,0,0,0,.09-.16s-.18.11-.17,0,0-.07-.11,0a5.87,5.87,0,0,1-.82-.06s0,0,0,0c.36,0,1.09-.08,1.09-.31s0-.32-.66-.32-2,.23-2-.12c0-.17.27-.16.6-.14"/><path class="cls-2" d="M65.8,46.24s0-.07.06-.07.06,0,.07,0,0-.07-.06-.09.06,0,0-.06-.07,0-.08,0,0,0,0-.06,0,0,.06,0l.19.09a.07.07,0,0,1,0,.06s0,0,0,.06,0-.06,0-.06,0,0,0,.06-.09,0-.11,0,0,.06,0,.09,0,.05,0,.09-.07.11-.13.07a.11.11,0,0,1,0-.15m.22-.47s-.1.1-.15,0,0-.06-.05-.15a1,1,0,0,0,.2.11m.14.07a.61.61,0,0,0,.23.09c-.1,0-.08.07-.15.06s-.09-.09-.08-.15m1.51-.07a.23.23,0,0,0,.15.11c.8.22,1.72-.38,2.21-.24-.63-.22-1,.16-1.64,0,.35,0,.73-.08.75-.17-.28.18-1.06-.13-1.39.08a.12.12,0,0,0-.06.06c-.25.05-.46.19-.46.37,0,.53,2.06.11,2.06.29s-.41.27-1,.27a5.68,5.68,0,0,0-2,0h0c.07-.15.25-.37.17-.47a.17.17,0,0,0,.12-.15.21.21,0,0,0-.14-.07s0-.07,0-.11,0-.08,0-.1a.61.61,0,0,0-.17-.11.9.9,0,0,0-.18-.06l-.1,0s-.1,0-.1.05a.2.2,0,0,0-.14-.06.29.29,0,0,0,0,.21c-.07,0-.14.18-.21.16s0,.08.07.08-.08.23-.15.24l.07.07a1.43,1.43,0,0,0,0,.5,4.59,4.59,0,0,0-.44-.5.23.23,0,0,1-.13-.25,2.89,2.89,0,0,0,0-.29.51.51,0,0,0,0-.09.16.16,0,0,0-.16-.1.13.13,0,0,1,.07.1.12.12,0,0,0,0,.06.08.08,0,0,0,0,.1s0,0,0,0a.09.09,0,0,1,0,0s0,0,0,0-.06-.18-.13-.19h0c0-.08-.09-.14-.18,0s.06,0,.07,0a.54.54,0,0,1,0,.08c0,.08,0,.11.13.11h0s0,0,0,0h0c-.14-.05-.2,0-.2.07s0,0,0,.05-.06.11,0,.16,0-.07,0-.08h0l0,0a.17.17,0,0,0,.09,0h0l0,0a0,0,0,0,1,0,0c-.09.08-.07.17,0,.19s0,0,0,0-.23.13-.22,0c-.12.2.09.34.25.25s0,0,0,0,0,.06.06.06a.05.05,0,0,1,0,0,0,0,0,0,1,0,0s0,.1.08.11,0-.06,0-.06,0,.25.23.39a.28.28,0,0,0,.29.21c0,.1.1.19.08.19a1.37,1.37,0,0,0-.4,0,.71.71,0,0,1-.26.09v0s0,0,0,0-.16,0-.2,0,0-.08,0-.14-.06-.07-.09-.07h-.07a.16.16,0,0,0-.18,0,.15.15,0,0,1,.1.07l0,.06s0,.09.16.15c0,0,0,0,0,0s-.06,0-.09,0-.08-.13-.17-.08l0,0h0c-.07,0-.19.08-.14.18a.15.15,0,0,1,.1-.09.11.11,0,0,0,0,.06c0,.09,0,.16.23,0,0,0,0,0,0,0s-.16.15-.07.21l0,0v0c0,.1.09.17.15.17a.18.18,0,0,1-.06-.15h.06c.08,0,0-.14.09-.17s0,0,0,0,0,.14.13.13a.14.14,0,0,0,.14-.15s0,0,0,0a.1.1,0,0,1,0,.11.3.3,0,0,0,.07-.08.15.15,0,0,1,0,.18.25.25,0,0,0,.17-.18.09.09,0,0,1,0,.06h0a.28.28,0,0,0,.21,0s0,0,0,0a.14.14,0,0,0,0,.11s0-.06,0-.06,0,.1.06.16c0-.25.17-.15.33-.26s0,0,0,0a.18.18,0,0,1-.07.09c.06,0,.24-.09.24-.18a1.3,1.3,0,0,0,.16-.45h.06c.22,0,.32-.18.54-.19a.61.61,0,0,0-.07.32c0,.11.16.25.2.28s0,0,0,0-.15,0-.16,0c-.18.11-.19-.27-.37-.2l0,0c-.08,0-.18.09-.16.17a.14.14,0,0,1,.11-.07v0s0,.06.07.06h.08a0,0,0,0,1,0,0c0,.07-.24,0-.19.16l0,.06s0,.11.15.08-.06,0,0-.07h0a0,0,0,0,0,0,0h0l0,0s0,0,0,0,0,.06,0,.06a.12.12,0,0,0,.2.07s-.09,0-.1,0l.05,0s0,0,0-.06,0,0,0,0h0s0,0,0,0a.14.14,0,0,0,.15.06c.13,0,0-.15.12-.18h.08c.1,0,.17,0,.2,0a.26.26,0,0,0-.09-.29c-.06,0,.09-.43-.21-.61.14,0,.59.1.67,0a.73.73,0,0,1,.31.15s0,.06,0,.08-.1.12-.17.14h0s-.08-.1-.12-.12-.09,0-.09,0a.18.18,0,0,0-.2.08.32.32,0,0,1,.14,0,.1.1,0,0,1,0,0s0,0,0,.07h0s0,0,0,0-.2,0-.17.06a.35.35,0,0,1,0,.06.12.12,0,0,0,0,.15.18.18,0,0,1,.09-.08l0,0s.11-.06.18,0,0,0,0,0-.14.07-.11.13a.08.08,0,0,1,0,.05.12.12,0,0,0,.09.15s0-.07,0-.09h.07c.14-.07.05-.17.1-.2s.11.08.22,0a.08.08,0,0,0,0-.1v0h0s.06.06.11,0,0-.11,0-.16,0,0,0,0a.15.15,0,0,0,.15-.08c-.06,0-.22-.08-.12-.11s.16-.13.1-.2-.33-.16-.34-.31h.21c.69,0,1.13-.19,1.12-.41,0-.47-2.1,0-2.1-.3,0-.1.13-.18.29-.24"/><path class="cls-2" d="M34,9.53a.51.51,0,0,0-1,0,.51.51,0,1,0,1,0"/><path class="cls-2" d="M33.82,8.19a.5.5,0,0,0-.51-.5.5.5,0,0,0-.5.5.5.5,0,0,0,.5.51.51.51,0,0,0,.51-.51"/><path class="cls-2" d="M34.1,7.6a.51.51,0,0,0,.51-.51.51.51,0,0,0-1,0,.51.51,0,0,0,.5.51"/><path class="cls-2" d="M35.44,7.51a.51.51,0,1,0-.5-.51.51.51,0,0,0,.5.51"/><path class="cls-2" d="M41.17,6.58a.5.5,0,0,0,.71,0,.5.5,0,0,0,0-.71.51.51,0,0,0-.71,0,.51.51,0,0,0,0,.72"/><path class="cls-2" d="M41.06,5.5a.5.5,0,1,0-.71,0,.5.5,0,0,0,.71,0"/><path class="cls-2" d="M39.72,5.28a.5.5,0,1,0-.71,0,.5.5,0,0,0,.71,0"/><path class="cls-2" d="M38.58,6.13a.5.5,0,1,0-.71,0,.5.5,0,0,0,.71,0"/><path class="cls-2" d="M35.37,5.44l.4.88.51-.62.06,0a8.08,8.08,0,0,1,.07,1.09.64.64,0,1,0,1.28,0,.63.63,0,0,0-.34-.56,5.08,5.08,0,0,1-.71-.67l0-.08.85.08-.33-.91-.64.55,0,0-.05-.94-.88.34.58.69,0,.07Z"/><path class="cls-2" d="M41.2,7a1.27,1.27,0,0,1,.28.7A1.45,1.45,0,0,1,41,7.22l.1,1.18A1.08,1.08,0,0,1,41.48,8c0,.77-.35,1.08-.6,1.13a.49.49,0,0,1-.61-.39c-.06-.34.23-.55.53-.24.06-.71-.51-.7-.76-.4a1,1,0,0,0-.43-1.49,1.09,1.09,0,0,0,.27,1.53c-.47-.23-.89.16-.47.68.09-.45.48-.35.57,0s-.22.71-.72.86c-.72.22-1-.24-1.13-.63.15-.11.53-.07.94.19l-.35-1.15a1.16,1.16,0,0,1-.69.7,3.67,3.67,0,0,1,.22-1l-1.39.56a3.36,3.36,0,0,1,.86.57,1.16,1.16,0,0,1-1,0l.56,1.06c.11-.47.35-.76.53-.8.15.41.3.9-.36,1.25-.47.24-1,.17-1.12-.11s0-.67.4-.41c-.06-.66-.64-.65-.81-.16,0-.68-.17-1.09-.89-1.28A1,1,0,0,0,35.8,9.8c-.39,0-.81.34-.27.81,0-.43.35-.48.55-.19a.5.5,0,0,1-.16.7c-.22.14-.66.13-1.23-.39a1.11,1.11,0,0,1,.6,0l-.74-.91a1.36,1.36,0,0,1,0,.71,1.27,1.27,0,0,1-.28-.7l-.57.51a6.53,6.53,0,0,1,1.91,1.88,23.92,23.92,0,0,1,3.08-1.54,25.39,25.39,0,0,1,3.27-1A6.6,6.6,0,0,1,42,7Z"/><path class="cls-2" d="M42.79,13.67c-.7.56-1.63.05-2.06-.67a21.66,21.66,0,0,0,2.85-1.32c-.7,1.08-.22,1.55-.79,2M42.64,21a1.39,1.39,0,0,1-1.79-.95c-.17-.55-.32-1-.11-1.2.39-.39.52-.69.28-1.17s-.86-.3-1.5-.14c.3-.53.32-.91-.08-.86s-.49.83-.76.74-.11-.54-.11-.78.21-.45.54-.6l2.63-1c.34-.13.57-.19.81,0s.59.38.46.64-.68-.31-1.07,0,0,.5.55.68c-.57.33-1.17.55-1,1.14s.46.64,1,.64c.3,0,.51.43.76.94A1.32,1.32,0,0,1,42.64,21m-5-5.3c-.71.06-.69-.61-1.93-.91a20.77,20.77,0,0,0,3-1c.19.82-.15,1.83-1,1.91M52.26,39.08c.2-.54-.79-1.15-.9-1.93a3.87,3.87,0,0,0-.91-2.54c-.87-1-3.89-4.24-4.79-5.27a1.47,1.47,0,0,1,1.32.38c.33.31,1,.92,1.57,1.51a16.42,16.42,0,0,1,3.2-5.14c.18-.2.36-.4.55-.59a7.3,7.3,0,0,0-1.78.59c0-.89,0-1.61-.58-2.17.23-1.24,0-2.73-2.74-4.58,1.41.34,2.26,1.63,3.34.64-1,0-1-2.15-4.52-3.92,1.35,0,2.4,2.15,4,.91-1.47-.17-2-2.78-4.6-3.58.91.1,1.86.55,2.65-.52-.92.22-1.46-.63-2.45-.7a3.21,3.21,0,0,0-.11-2.7,3.39,3.39,0,0,0-1.9.67c-.08-.62-.74-.66-1.32-.61,0,.27.16.66-.14.72a24.8,24.8,0,0,0-3.26,1,17.72,17.72,0,0,0-3,1.61c-.25.17-.46-.23-.61-.41-.43.36-.85.83-.54,1.31a3.78,3.78,0,0,0-2.05.74,2.39,2.39,0,0,0,1.62,2c-1.63,1.62-.15,3.12-1.59,4.54,2,.07,1.67-2.74,2.69-3.13-.11,2-1.21,2.33-1.21,4.46,0,1.14.68,2.38.07,3.13,1.69-.47,1.25-4.2,2.3-5.33a3.11,3.11,0,0,1-.14,1.9c-.59,1.75.06,4.13-.86,4.91,1.73-.17,1.93-2.94,3.35-4-1.22,2.5-2.47,7.8-4.29,10.46-2.94,4-4.67,8.81-7.37,8.81A2,2,0,0,1,25.13,40c0-4.51,7.74-7.62,7.74-12.42a2.85,2.85,0,0,0-2.83-3,3.92,3.92,0,0,0-2.37,1,2.59,2.59,0,0,0-.92-.2c-2.73,0-2,4.91-4.39,4.87.94.53,2.58-.51,3.53-1.88-.4,3.19-5,2.34-4.63,6.17.64-3,8-2.56,8-7.11a1.75,1.75,0,0,0-.62-1.28,2.83,2.83,0,0,1,1.54-.49,1.73,1.73,0,0,1,1.68,1.95c0,4-7.7,7.42-7.7,12.37a3.55,3.55,0,0,0,.64,2.08,1.28,1.28,0,0,1-1.56-.42c0,1.27,1.78,2.07,2.92,1.43a3,3,0,0,0,.8.17,2.17,2.17,0,0,1-2.14,1.18c1.89,1.49,5.17-.46,5-2.14,1.5-1.21,2.45-3.28,3.54-4.64-.07.32-.13.63-.18.94a16.26,16.26,0,0,0-2.42,6.45c-.24,2.21-1.36,4.2-2.91,4.2-.34,0-.91-.44-1.17-.22-.48.41,0,.85,0,1.26,0,.63-1.22,1.26-1.22,3.2,0,.88.51,1.92.32,2.5a3.56,3.56,0,0,0,1.43-2.15c.53,2.56-1.1,2.45.07,4.72a.94.94,0,0,1,1.36-.75c.46.32.25.54-.09.88s-.66,2,.89,1.94c-.29-.19-.31-.64.46-.8,1.07-.22,1.39.27,2.53.27.7,0,.9-.92,1.45-.92s.56.43.37.75c.9-.24,1.06-.73,1.06-1.24s-.41-.82-.09-1,1.36,0,.94.87a1,1,0,0,0,.83-1.14c0-.66-.75-1-1.46-.92-.12-.42-.72-.63-1.28-.63-1.26,0-1.07,1-1.94,1-1.38,0-2.72-1.8-2.72-4.84,0-1.62,1.75-2,3-2.57A10.59,10.59,0,0,0,37.2,45.4c1-1.7,1-3.57.92-5.79a3.67,3.67,0,0,1,2,3.49,2.14,2.14,0,0,1-1.26,2.16c-.47.21-.63.12-.68.4a.59.59,0,0,0,.38.65c.63.33.5.93.67,1.58a5,5,0,0,0,1.74,2.44,7.58,7.58,0,0,0,0-1.9c1.34.66.26,3.36,2.87,3.36-.48-.28-.36-1-.08-1.08s.63.17,1.13.87.37.65,1.6.65.68-.43,1.33-.43.6.75.25,1.31a1.42,1.42,0,0,0,1.06-2,1.05,1.05,0,0,1,1.62.75A1.29,1.29,0,0,0,50,49.64a.76.76,0,0,0-.7-.75,9.91,9.91,0,0,0-1.23,0c-.45,0-.7.68-1.23.68-1.63,0-4.86-2.95-4.86-4.23s3.09-2.06,3.09-4c0-2.6-2.55-3.48-4.7-5.15.77-.85,3-1.06,4.26-.44.15-.72.61-.54.78-1.79.46,1.1,0,2,.45,2.51.36-.53,1.28-.45,1.23-1.81.28.85-.36,2.15.28,2.72.11-.7.53-.84.79-.84s.49.2.49.61c0,1-1.27.55-1.27,1.72,0,.49.62.66.62,1a.68.68,0,0,1-1.13.39A1.31,1.31,0,0,0,48,41a1.64,1.64,0,0,0,1.4-1c.3.74.07,1.56-.46,1.67.56.28,1.9,0,1.75-1.7.75.13,1.15.64.7,1.55.62-.15,1.19-.45,1.19-1.11,0-.51-.55-.66-.31-1.32"/><path class="cls-2" d="M102.12,51.51a1.62,1.62,0,1,1,1.63,1.62,1.63,1.63,0,0,1-1.63-1.62m-.55,0a2.18,2.18,0,1,0,2.18-2.18,2.18,2.18,0,0,0-2.18,2.18"/><path class="cls-2" d="M94.44,55.45c-.62-.11-1.06-.58-1-1a.71.71,0,0,1,.31-.45,1.31,1.31,0,0,1,1-.18,1.09,1.09,0,0,1,1,.92.37.37,0,0,1,0,.11,1,1,0,0,1-1.27.63m-1-1.94a1.27,1.27,0,0,0-.54.81,1.31,1.31,0,0,0,.34,1.09,2,2,0,0,0,1.09.59,1.93,1.93,0,0,0,1.22-.18,1.26,1.26,0,0,0,.7-.9,1.57,1.57,0,0,0-1.43-1.68,1.91,1.91,0,0,0-1.38.27"/><path class="cls-2" d="M81.35,24.27a1.12,1.12,0,0,1,.47-.83,1.14,1.14,0,0,1,.82-.26.65.65,0,0,1,.41.22.67.67,0,0,1,.11.45,1.21,1.21,0,0,1-.46.74.91.91,0,0,1-1.23,0,.53.53,0,0,1-.12-.35M81.47,23A1.45,1.45,0,0,0,81,25h0a1.46,1.46,0,0,0,2,.06,1.73,1.73,0,0,0,.66-1.11,1.16,1.16,0,0,0-.22-.86,1.17,1.17,0,0,0-.78-.43,1.73,1.73,0,0,0-1.24.37"/><path class="cls-2" d="M91.73,52.93Zm0-.56h0a.71.71,0,0,1-.48-.23,1.28,1.28,0,0,1-.33-.93,1.24,1.24,0,0,1,.36-.91.67.67,0,0,1,.5-.21c.46,0,.82.53.81,1.16a1.29,1.29,0,0,1-.36.91.7.7,0,0,1-.49.21M90.9,49.9a1.83,1.83,0,0,0-.53,1.3v0a1.81,1.81,0,0,0,.48,1.28,1.25,1.25,0,0,0,.88.41,1.32,1.32,0,0,0,.9-.37,1.88,1.88,0,0,0,.53-1.31,1.9,1.9,0,0,0-.36-1.18,1.3,1.3,0,0,0-1-.54,1.22,1.22,0,0,0-.9.37"/><path class="cls-2" d="M80.69,34.45A1,1,0,0,1,80,33.2a.71.71,0,0,1,.41-.35,1.31,1.31,0,0,1,1,.09,1.34,1.34,0,0,1,.68.71.72.72,0,0,1,0,.54.73.73,0,0,1-.42.35,1.31,1.31,0,0,1-1-.09m-.43-2.12a1.24,1.24,0,0,0-.73.63,1.56,1.56,0,0,0,.92,2,1.89,1.89,0,0,0,1.41.11,1.2,1.2,0,0,0,.76-1.6,1.84,1.84,0,0,0-1-1,1.86,1.86,0,0,0-1.4-.11"/><path class="cls-2" d="M96,42.23A.9.9,0,1,1,96,40.81,1,1,0,0,1,96,42.23m-2.56,4a.9.9,0,1,1-.08-1.41,1,1,0,0,1,.08,1.41M84.67,24.12c.3-.94.87-2.81.87-2.81l1,.38a3.36,3.36,0,0,0-.94.67,1,1,0,0,0,.89-.06l-.39,1a1.29,1.29,0,0,0-.65-.58A1,1,0,0,0,86.1,24c.6.31,1,.36,1.16.09a.49.49,0,0,0-.71-.61c0-.52.24-.79.58-.79s.49.24.56.58a1.62,1.62,0,0,1,1.12-1.74,1.67,1.67,0,0,1-.56,2,.7.7,0,0,1,.84.12c.19.28.12.68-.34.92a.5.5,0,0,0-.91-.24c-.18.35.09.68.65,1a1,1,0,0,0,1.5-.42,1.17,1.17,0,0,0-.92.19l.66-1.23a1.25,1.25,0,0,0,.41.72,1.59,1.59,0,0,0,0-1.19l1.42.82a1.52,1.52,0,0,0-1,.63,1.28,1.28,0,0,0,.83,0L90.68,26a1.14,1.14,0,0,0-.3-.89,1,1,0,0,0,.39,1.51c.55.33,1,.39,1.18.07a.51.51,0,0,0-.66-.68c0-.51.29-.77.63-.75s.47.33.53.67a1.67,1.67,0,0,1,1.41-1.47,1.6,1.6,0,0,1-1,1.84.65.65,0,0,1,.79.2c.17.3.08.68-.4.9a.5.5,0,0,0-.88-.32c-.15.29.09.6.65,1A1,1,0,0,0,94.52,28a1.34,1.34,0,0,0-.83-.27l.66-.84a1,1,0,0,0,.39.81,3.21,3.21,0,0,0,.11-1.15l.83.66s-1.34,1.43-2,2.16ZM95.31,36.21a.73.73,0,0,1,.21-.5.74.74,0,0,1,.51-.18,1.34,1.34,0,0,1,.89.43,1.38,1.38,0,0,1,.38.92.73.73,0,0,1-.21.49h0a.71.71,0,0,1-.51.18,1.34,1.34,0,0,1-.89-.43,1.38,1.38,0,0,1-.38-.91m3.9,17.91a1.4,1.4,0,0,1,1.54-1,.76.76,0,0,1,.46.29h0a.67.67,0,0,1,.08.52,1.31,1.31,0,0,1-.57.8,1,1,0,0,1-1.42-.07.67.67,0,0,1-.09-.53m-18.54-27a1.09,1.09,0,0,1-.33.76.65.65,0,0,1-.42.17.86.86,0,0,1-.64-.93v-.08a1,1,0,0,1,.33-.76.58.58,0,0,1,.42-.17.58.58,0,0,1,.4.21,1.11,1.11,0,0,1,.24.8m5.74-11.78c.3-.58,0-1.47,1.06-1.47.52,0,1,.53,1.62.73a6.24,6.24,0,0,0-2.68.74m16.7,14.74c.71,1.94,2.12,2.64,3.19,2.14-2.4-.28-.45-4.38-3.54-4.38a2.57,2.57,0,0,0-.5,0,2.54,2.54,0,0,0-2-.78A3.83,3.83,0,0,0,96.69,31c0,5.61,6.52,6.11,6.52,11.07a2.28,2.28,0,0,1-2.32,2.35c-1.1,0-2-1.23-2.9-3.16a25,25,0,0,0-2.39-3.48,1.69,1.69,0,0,0,1,.35,1.23,1.23,0,0,0,1.29-1.22v0A1.94,1.94,0,0,0,96,35a1.21,1.21,0,0,0-.9.33,1.25,1.25,0,0,0-.38.88v.05a1.63,1.63,0,0,0,.1.57c-1.4-1.83-2.7-3.63-2.7-4.62a4.48,4.48,0,0,1,1.34-2.55l.25.15.2-.22c.26-.29.8-.89,1.93-2.09L96,27.4h0l.27-.29-.7-.56A7.71,7.71,0,0,0,96,25.18c.22.9.68,1.48,1.32,1.3-.42-.94.43-2.18-.13-4.46.53.88,1.3,1.34,1.85,1.18-1.44-1.28.43-3.07-1.45-5.84a1.1,1.1,0,0,0,1.29-.21c-1.71-.24-.93-2.43-3.94-3.21.75-.14,1.19-.57,1.08-1-.8.57-1.49-1.07-4.1-1a3.82,3.82,0,0,0-2.09-2.49,3.39,3.39,0,0,1-.19,2l-8.5-8.34c-.24-.24-.38-.29-.45-.21s-.06.24.1.41l7.29,9.15-1.65.63a1,1,0,0,0-.64.95,15,15,0,0,0-3.13,2c-.45.41-.8.51-.41,1.43.15.35-.31,1.21.74.58.69-.42,2.27-1.28,2.5-.74.12.29-.65.66-1.19.86s-1.11.62-1,.82.5,0,.53.21a.47.47,0,0,0,.41.45c.21,0,.49-.44.66-.29s-.09,1.14-.26,1.39A1.64,1.64,0,0,0,86,19.29c0-.62.19-.76.32-.85s.28.66.11,1.1c.43-.09.89-.66.83-1.73a1.19,1.19,0,0,1,.61-.3c.28,0,.83.76,1.61.76a2.39,2.39,0,0,0,2.33-1.72,1.58,1.58,0,0,0-.2-1.2,2,2,0,0,1,.68,1.55c0,2.05-3.61,3-5.1,4.43l-.16.15-1.7-.65-.12.37a2,2,0,0,1-.1.32c-.17.58-.54,1.79-.77,2.49l-.09.28.15.09a9.37,9.37,0,0,0-2,4.38,14.69,14.69,0,0,0-1.24-1.13,1.86,1.86,0,0,0,.09-.47,1.65,1.65,0,0,0-.38-1.2,1.16,1.16,0,0,0-.79-.39,1.12,1.12,0,0,0-.82.3.75.75,0,0,0-.15.16l-.18-.14a13.3,13.3,0,0,1-1.68-1.41.88.88,0,0,0-.74-.3l-.75,0c-.25,0-.4.2-.68.45s-.53.43-1,.76c.21.21.42.43.62.66s.21.25.32.38l.3-.23A.92.92,0,0,1,76,26a1,1,0,0,1,.74.48c.16.23,1.53,2,2.67,3.29a3,3,0,0,0-.36.14,6,6,0,0,1-2.07.12c-.5,0-.59-.16-.92.36-.13.2-.29.43-.45.63s-.29.42,0,1a43.73,43.73,0,0,1,2.16,4.09,2.37,2.37,0,0,0,1.7,1.49,12.2,12.2,0,0,1,2.3,1.28l0-.77a4.53,4.53,0,0,0-1.27-.62c-.29-.11-.37-.23,0-.23a8.64,8.64,0,0,1,2,.61,5.77,5.77,0,0,0-1.35-2.05,1.88,1.88,0,0,0-1.39,0,.31.31,0,0,1-.32.36.3.3,0,0,1-.3-.4c.07-.23.41-.31.34-.74s-.61-.5-1-.54c-.48-.7-1-1.72-1.3-2.14s-.1-.65.08-.79c.41-.34,1.28.18,3,.29l2.14.11c.23,2,1,3.91,3.83,4.61a4.73,4.73,0,0,1,3.25,2.65c-5.58-.1-6.45,2.07-6.45,4.13,0,2.33,2,2.2,2,4,0,1.52-4.69,2.15-6.1,2.36a4,4,0,0,0-2.47,1c-.57.58-1.15,1.13-2.2,2.18a3.82,3.82,0,0,0,.89.08l.79-1c.23-.34.4-.63.55-.6s0,.29-.13.65l-.65,1.1c2.75.19,2.93-.83,2.93-1.25s-.68-.71-.29-1,.74-.08,1,.29.42.68,1.18.39c0,0,6-2.49,6.76-2.83s.48-.61.08-.94a2,2,0,0,1-.53-1.6c0-1.82,1.1-2.38,3.05-2.34a6.94,6.94,0,0,0-.06.87c0,2.84,4.28,5.61,5.44,5.61.52,0,1.21-.39,1.26,1.32a17,17,0,0,1,.06,3.59,2.69,2.69,0,0,1-1.52,2.29c-.87.61-1.69,2.53-2.06,2.93.39.26.8.29,1.13-.64a2.71,2.71,0,0,1,.91-1.51c-.34.85-.59,2.1-.75,2.47,1.09.2,2.87-.8,2.87-1.57s-.62-.71-.62-1.23a.59.59,0,0,1,.62-.48A.88.88,0,0,1,98,58c.49-.26.79-.74.78-1.87,0-.44,0-.9-.05-1.37a.77.77,0,0,0,.1.18,1.26,1.26,0,0,0,1,.56,2,2,0,0,0,1.2-.32,1.87,1.87,0,0,0,.82-1.15,1.41,1.41,0,0,0,0-.28,1.18,1.18,0,0,0-.2-.67,1.23,1.23,0,0,0-.8-.53,2,2,0,0,0-2.18,1.35c-.09-1.54-.2-3-.16-3.58.07-.87.1-1.26-.19-1.39s-.61.36-1,.36a2.81,2.81,0,0,1-1.68-2.38c0-1.23,1.33-2.81,1.26-4.48,0-.53.31-.8.51-.32a8.11,8.11,0,0,0,1.2,2c-.35,2.1,2,4.16,3.88,2.64-1,.13-1.59-.7-2-1.55a2.76,2.76,0,0,0,.51.05h.29a2.05,2.05,0,0,0,3.34-1.3,2.19,2.19,0,0,1-1.69.69,3.4,3.4,0,0,0,1.22-2.73c0-5.35-6.49-6-6.49-10.84a3,3,0,0,1,2.68-3,1.69,1.69,0,0,1,1,.32,2.42,2.42,0,0,0-.61,1.86c.17,3.84,6.45,3.65,6.53,5.49.7-2.78-4-1.92-4.15-5.67"/></svg>