<svg id="Layer_1" data-name="Layer 1" xmlns="http://www.w3.org/2000/svg" viewBox="0 0 195.27 235.61"><defs><style>.cls-1{fill:#231f20;}</style></defs><title>CSE-logo</title><path class="cls-1" d="M192,228.22a6.83,6.83,0,0,1,3.32.87,6.15,6.15,0,0,1,2.5,2.48,6.75,6.75,0,0,1,.91,3.38,6.87,6.87,0,0,1-.89,3.36,6.38,6.38,0,0,1-2.49,2.48,6.77,6.77,0,0,1-6.71,0,6.29,6.29,0,0,1-2.48-2.48,6.76,6.76,0,0,1,0-6.74,6.15,6.15,0,0,1,2.5-2.48A6.8,6.8,0,0,1,192,228.22Zm0,1.32a5.53,5.53,0,0,0-2.67.69,5,5,0,0,0-2,2,5.4,5.4,0,0,0,0,5.42,5.06,5.06,0,0,0,2,2,5.32,5.32,0,0,0,5.38,0,5.13,5.13,0,0,0,2-2,5.43,5.43,0,0,0,0-5.42,5,5,0,0,0-2-2A5.52,5.52,0,0,0,192,229.54Zm-3,9v-7.15h1.45c1.36,0,2.12,0,2.28,0a2.77,2.77,0,0,1,1.12.28,1.78,1.78,0,0,1,.67.69,2,2,0,0,1,.27,1,1.89,1.89,0,0,1-.51,1.33,2.33,2.33,0,0,1-1.42.68,2,2,0,0,1,.51.26,5.74,5.74,0,0,1,.48.55c0,.07.23.36.53.87l.84,1.45h-1.79l-.6-1.16a5.2,5.2,0,0,0-1-1.48,1.63,1.63,0,0,0-1-.3h-.38v2.94Zm1.45-4.07H191a7.79,7.79,0,0,0,1.56-.09,1,1,0,0,0,.48-.34.94.94,0,0,0,.17-.55.88.88,0,0,0-.17-.53.86.86,0,0,0-.49-.33,6.54,6.54,0,0,0-1.55-.11h-.59Zm-165-3.82a13.34,13.34,0,0,0-2.18-7.27l-3.12,1.2a10.76,10.76,0,0,1,1.46,5.33c0,4.22-3.21,6.85-7.31,6.85-3.7,0-7.21-2.21-7.21-7.24a10.3,10.3,0,0,1,1.5-5.36l-4-.07a12.82,12.82,0,0,0-1.13,5.59c0,7.31,5,11.92,11.14,11.92s10.82-4,10.82-11ZM23,204.23a8.52,8.52,0,0,0-6.21-2.18H3.71v4.45H17.07a4.62,4.62,0,0,1,3.31,1.08,5.69,5.69,0,0,1,0,7.31,5.14,5.14,0,0,1-3.51,1.2H3.71v4.41H17.23a8.18,8.18,0,0,0,6-2.11c1.49-1.52,2.21-3.86,2.21-7s-.88-5.56-2.47-7.15Zm2.47-12.15c0-4.39-2.44-7.83-6.34-7.83-6.72,0-6.4,9.19-10.1,9.19-1.24,0-1.95-1.23-1.95-2.82a10.43,10.43,0,0,1,1.56-5.1l-3.83-.07a10.93,10.93,0,0,0-1.3,5.39c0,4.72,2.86,7.28,6.1,7.28a5.56,5.56,0,0,0,3.81-1.37c3-2.59,3.44-7.79,6.27-7.79,1.62,0,2.2,1.75,2.2,3.31a8.85,8.85,0,0,1-1.65,4.91l3.21,1.72a12.05,12.05,0,0,0,2-6.82ZM7.35,166.31l-3.64-1v17.51H7.35v-6.27H25.12v-4.49H7.35v-5.75Zm-.23-11.69c0,3.7,2.7,6.4,7.38,6.4s7.37-2.7,7.37-6.4-2.69-6.34-7.37-6.34-7.38,2.63-7.38,6.34Zm15.15-8.06a12.13,12.13,0,0,1,.58,15.69,10.74,10.74,0,0,1-8.19,3.42,11.25,11.25,0,0,1-8-3.09,10.92,10.92,0,0,1-3.18-8,11.11,11.11,0,0,1,3.31-8.35,11,11,0,0,1,7.6-2.7,11,11,0,0,1,7.87,3Zm2.85-23.78v-4.42H3.71v4.1l7.9,5.13a20.74,20.74,0,0,0,2.53,1.46v0a26,26,0,0,0-2.4,1.56l-8,5.62v4.1H25.12v-4.42h-12c-.62,0-1.37,0-2.18,0v-.06a14.71,14.71,0,0,0,2.08-1.37l6.24-4.42v-2l-6.08-4A17.13,17.13,0,0,0,11,122.78v-.07c.75.07,1.53.07,2.31.07Zm0-8.55V101.86H21.49v7.92H16V103H12.36v6.82h-5V103l-3.64-1.17v12.41Zm-17.7-22v1.88h6.2V92.21a3.21,3.21,0,0,0-3.28-3.28c-1.66,0-2.92,1.17-2.92,3.28Zm17.7-5.1c-5.55,3.25-8,4.55-8.25,5.32v1.66h8.25v4.45H3.71V92.3c0-5.71,2.83-7.79,6.14-7.79a6.13,6.13,0,0,1,5.56,3.9h0c.62-1.08,4.23-3.16,9.68-6.37v5.07ZM52.86,235.35c0-3.86-2.24-6.75-5.56-6.75-6.43,0-6.46,9.48-11.24,9.48-2.08,0-2.92-1.82-2.92-3.9a8.71,8.71,0,0,1,1.39-4.67H32a10,10,0,0,0-1,4.74c0,3.9,2.31,6.17,5.33,6.17a5.47,5.47,0,0,0,3.86-1.52c2.83-2.64,3.61-7.77,7.38-7.77,2.27,0,3.22,2.31,3.22,4.26a8.24,8.24,0,0,1-1.5,4.67l1.92,1.14a10.24,10.24,0,0,0,1.69-5.85Zm-.33-11.14V213.62H50.32v8.22H42.66v-7.15H40.48v7.15H33.33v-7.21l-2.21-.91v10.49Zm-19.2-19.72v2h8v-2.17A4.26,4.26,0,0,0,37.17,200c-2.05,0-3.84,1.11-3.84,4.52Zm19.2-6.66c-5.45,3.44-8.9,5.46-9.1,6.4v2.3h9.1v2.38H31.12v-4.42c0-5,2.57-7.08,5.79-7.08a6,6,0,0,1,5.78,4.19h0c.33-.69,4.32-3.12,9.81-6.6v2.83Zm.1-12.77L31.12,175.9v2.47l14.26,5.94c1.17.49,2.21.88,3.32,1.24v.06c-1.11.39-2.28.81-3.32,1.2l-14.26,5.5v2.53l21.51-8.45v-1.33Zm-.1-12.57v-2.37H31.12v2.37Zm.33-17a12.3,12.3,0,0,0-1.59-6l-2,.72a10.74,10.74,0,0,1,1.36,5c0,5-3.67,8-8.77,8s-8.81-3.25-8.81-8a9.39,9.39,0,0,1,1.66-5.56H32.23A10.7,10.7,0,0,0,31,155.07c0,6.31,4.91,10.66,11.11,10.66s10.79-3.93,10.79-10.27Zm-.33-10.07V134.8H50.32V143H42.66v-7.15H40.48V143H33.33v-7.21l-2.21-.91v10.49Zm27.41,95.32V228.34H76.3v7.92H70.84v-6.82H67.17v6.82h-5v-6.79l-3.64-1.17v12.41Zm-10.65-27L58.53,206.5v4.81L66,216.25l-7.47,4.55v4.94L69,219.34l11,7.5V221.9l-7.73-5.16,7.73-4.88V206.8l-10.65,6.88Zm11-17.87a13.34,13.34,0,0,0-2.18-7.27L75,189.74a10.76,10.76,0,0,1,1.46,5.33c0,4.22-3.21,6.85-7.31,6.85-3.7,0-7.21-2.21-7.21-7.24a10.37,10.37,0,0,1,1.49-5.36l-4-.07a12.82,12.82,0,0,0-1.14,5.59c0,7.31,5,11.92,11.15,11.92s10.82-4,10.82-10.95Zm-.33-10.16V173.27H76.3v7.92H70.84v-6.82H67.17v6.82h-5V174.4l-3.64-1.17v12.42Zm0-15.7V158H76.27v7.54H58.53V170Zm0-14.32v-12H76.27v7.54H58.53v4.42Zm0-14.33V128.92H76.3v7.93H70.84V130H67.17v6.83h-5v-6.79l-3.64-1.17V141.3Zm0-31.45v-4.13H58.53v4.42H69.45c.91,0,2.3,0,3.31-.06v.06c-.88.59-1.72,1.17-2.79,2l-11.44,9v4.49H79.94v-4.42H68.21c-1,0-2.27,0-3,.06v-.06c1-.65,1.79-1.24,2.83-2l11.89-9.29Zm.33-18.29a13.35,13.35,0,0,0-2.18-7.28L75,85.48a10.76,10.76,0,0,1,1.46,5.33c0,4.22-3.21,6.86-7.31,6.86-3.7,0-7.21-2.21-7.21-7.25a10.37,10.37,0,0,1,1.49-5.36l-4-.07a12.85,12.85,0,0,0-1.14,5.59c0,7.31,5,11.93,11.15,11.93s10.82-4,10.82-11Zm-.33-10.17V69H76.3v7.93H70.84V70.11H67.17v6.83h-5V70.15L58.53,69V81.39Zm78.24,142.26-13.49-7.1-13.49,7.1,2.58-15L122.86,198,138,195.79l6.74-13.67,6.74,13.67L166.52,198,155.6,208.63l2.58,15Zm15.68-55H115.47a7.28,7.28,0,0,0-7.28,7.28v58.38a7.27,7.27,0,0,0,7.28,7.28h58.39a7.27,7.27,0,0,0,7.27-7.28V175.94a7.27,7.27,0,0,0-7.27-7.28ZM144.66,64.11a21.57,21.57,0,1,1,21.53-21.54,21.58,21.58,0,0,1-21.53,21.54Zm29.13-58H115.44a7.27,7.27,0,0,0-7.27,7.28V71.71A7.27,7.27,0,0,0,115.44,79h58.35a7.27,7.27,0,0,0,7.28-7.28V13.36a7.27,7.27,0,0,0-7.28-7.28ZM134,56.81l28.62-13.94L134,28.34V56.81Zm38.51,65.09v4H164v7.32h9.74v4H159.25V111.14h14.53l-1.31,4H164v6.77Zm-25.71,15.71a12.49,12.49,0,0,1-7.12-2.06l1.38-2.33a10.16,10.16,0,0,0,5.7,1.82c2.38,0,5.19-1.15,5.19-3.92,0-4.59-6.25-5.54-9.46-9a6.63,6.63,0,0,1-1.86-4.71c0-3.68,2.77-6.49,7.52-6.49a12.33,12.33,0,0,1,5.77,1.26v3.09a10.63,10.63,0,0,0-5.69-1.7c-2.53,0-4.75,1-4.75,3.56C143.44,123,155,123,155,130.84c0,4-3.53,6.77-8.24,6.77Zm-18,0c-8.31,0-13.13-5.74-13.13-13.18s5.53-13.53,14.12-13.53a14.51,14.51,0,0,1,6.77,1.42l0,4.36a12.31,12.31,0,0,0-6.61-1.86c-6.06,0-9.06,4.39-9.06,9.3,0,5.26,3.32,9.33,8.7,9.33a13.11,13.11,0,0,0,6.41-1.74l1.31,3.45a16,16,0,0,1-8.47,2.45Zm45.13-50H115.47a7.28,7.28,0,0,0-7.28,7.28V153.3a7.28,7.28,0,0,0,7.28,7.28h58.38a7.27,7.27,0,0,0,7.28-7.28V94.91a7.27,7.27,0,0,0-7.28-7.28Z" transform="translate(-3.49 -6.08)"/></svg>